<?xml version="1.0" encoding="utf-8"?>
<!-- Generator: Adobe Illustrator 16.0.4, SVG Export Plug-In . SVG Version: 6.00 Build 0)  -->
<!DOCTYPE svg PUBLIC "-//W3C//DTD SVG 1.1//EN" "http://www.w3.org/Graphics/SVG/1.1/DTD/svg11.dtd">
<svg version="1.1" id="Layer_1" xmlns="http://www.w3.org/2000/svg" xmlns:xlink="http://www.w3.org/1999/xlink" x="0px" y="0px"
	 width="100px" height="114.074px" viewBox="0 0 100 114.074" enable-background="new 0 0 100 114.074" xml:space="preserve">
<path fill="#FFFFFF" d="M50.669,46.133c0,6.687-8.741,13.614-13.157,17.719c-0.91,0.846-1.835,1.675-2.748,2.519
	c-0.72,0.665-4.637-3.898-5.456-4.728c-3.166-3.202-6.465-6.477-8.94-10.265c-4.226-6.466-1.795-16.108,7.249-16.108
	c2.512,0,5.053,0.927,6.8,2.77c1.746-1.844,4.289-2.77,6.8-2.77C46.973,35.271,51.624,40.355,50.669,46.133 M99.033,25.063
	c-1.371-0.015-3.223,0.438-4.793,0.041c-1.865-0.473-2.021-1.459-4.708-1.387c-1.138,0.031-2.938-0.182-3.487-0.214
	c-0.016-0.027-0.031-0.054-0.046-0.081c-1.299,0.697-3.274,0.884-2.899-0.717c-0.089-0.103-0.712-0.143-0.672-0.125
	c-0.034-2.629-2.575-0.302-3.698,0.42c-2.384,1.532-3.234,1.903-5.717,2.481c0.038-0.388,0-0.738,0.129-1.177
	c-1.084,0.185-1.465-0.202-2.059-0.167c0.452-2.199-2.202-1.708-3.448-2.568c-0.966-2.208-5.484-2.365-3.868,0.214
	c-0.297,0.193-0.928,0.414-1.26,0.545c-0.409-0.802-0.719-1.821-1.344-2.521c-0.412-0.461,0.091-1.2-0.547-1.851
	c0.121,0.123-2.563-0.653-2.525-0.63c-0.253-0.154,1.294-0.356,0.969-0.59c-0.628-0.451-3.423-1.948-4.205-2.182
	c-1.732-0.52-4.391,0.087-5.675,0.583c-0.986,0.381-1.9,1.732-3.236,1.724c-2.975-0.019-0.83-1.277-2.564-2.186
	c-2.847-1.493-6.509-0.484-8.996-1.597c-2.513-1.125-1.598-2.518-2.106-5.004c-0.386-1.884-0.76-6.152-2.434-7.357
	C28.955,0.078,27.78,0.482,26.731,0c-0.101,2.485-0.053,4.995-0.083,7.485C21.043,7.393,15.439,7.273,9.835,7.126
	C7.593,7.068,1.053,5.781,0,7.443C-0.174,7.718,0.67,9.58,0.757,9.926c0.423,1.684,0.358,3.318,0.297,4.581
	c-0.157,3.262-0.63,6.161-0.129,9.458c0.505,3.321,1.848,5.529,2.689,8.705c0.724,2.736,0.264,5.734,0.424,8.62
	c0.081,1.458-0.409,5.136,0.84,5.764c-0.353,2.461-0.912,5.71,0.164,8.828c1.101,3.193,3.384,7.893,1.638,12.402
	c-0.681,1.756-3.652,2.607-3.945,4.332c-0.368,2.167,3,3.473,3.783,4.373c3.613,4.152,1.209,14.927,1.05,20.602
	c-0.148,5.294-0.362,10.649-0.462,16.019c18.245,0.498,36.527,0.616,54.77,0.167c6.422-0.158,12.705-0.351,19.043-0.545
	c-0.769-2.581-0.283-6.216-2.44-8.412c-2.03-2.067-4.932-2.199-6.893-4.622c-0.863-1.066-0.628-2.341-1.684-3.321
	c-0.97-0.901-2.962-1.132-4.199-1.853c-0.721-0.42-0.375-1.379-1.052-1.722c-0.607-0.308-1.574,0.141-2.105-0.167
	c-1.056-0.612-1.299-0.708-2.35-1.726c-2.186-2.116-1.51-1.54-1.601-4.119c-0.035-0.987-0.46-2.546-0.46-3.409
	c0-0.954,0.218-2.862,0.46-4.036c0.268-1.299,1.612-2.461,1.219-3.951c-0.491-1.864-2.728-1.71-3.066-2.944
	c-0.446-1.624,0.783-2.455,1.472-3.573c0.898-1.458,1.259-1.912,2.479-2.945c0.731-0.62,2.583-0.897,3.068-1.468
	c1.84-2.167,0.521-9.452,0.503-12.577c1.021,0.445,1.283,0.208,1.092-0.713c0.729-0.825,1.565-0.947,2.564-0.127
	c-2.599-1.994,2.339-4.328,3.762-5.736c1.516-1.501,3.365-2.885,4.858-4.606c3.734-4.304,6.845-8.225,12.444-10.597
	c3.899-1.652,8.109-3.864,11.011-5.842C99.678,24.865,99.355,24.964,99.033,25.063z"/>
<g>
</g>
<g>
</g>
<g>
</g>
<g>
</g>
<g>
</g>
<g>
</g>
</svg>
