<?xml version="1.0" encoding="utf-8"?>
<!-- Generator: Adobe Illustrator 16.0.4, SVG Export Plug-In . SVG Version: 6.00 Build 0)  -->
<!DOCTYPE svg PUBLIC "-//W3C//DTD SVG 1.1//EN" "http://www.w3.org/Graphics/SVG/1.1/DTD/svg11.dtd">
<svg version="1.1" id="Layer_1" xmlns="http://www.w3.org/2000/svg" xmlns:xlink="http://www.w3.org/1999/xlink" x="0px" y="0px"
	 width="38px" height="37.5px" viewBox="0 0 38 37.5" enable-background="new 0 0 38 37.5" xml:space="preserve">
<g>
	<path fill="#04A195" d="M0,0v37.5h5.5V24.021c-0.5-0.282-1.126-0.938-1.126-1.704c0-0.765,0.626-1.423,1.126-1.705V8.835
		C5,8.552,4.389,7.896,4.389,7.131c0-1.023,0.836-1.805,1.858-1.805C7.013,5.326,7.677,6,7.958,6.5h21.887
		c0.282-0.5,0.939-1.174,1.704-1.174c1.022,0,1.966,0.805,1.966,1.828c0,0.766-0.515,1.398-1.015,1.681v11.778
		c0.5,0.282,1.127,0.939,1.127,1.705c0,0.766-0.627,1.422-1.127,1.704V31H14.278c-0.282,0.5-0.939,0.942-1.704,0.942
		c-1.023,0-1.776-0.921-1.776-1.944c0-0.765,0.202-1.514,1.202-1.796V16.423c-1-0.281-1.202-0.938-1.202-1.703
		c0-1.023,0.791-1.849,1.814-1.849c0.765,0,1.384,0.629,1.667,1.129h9.248c0.283-0.5,0.939-1.129,1.705-1.129
		c1.022,0,1.874,0.827,1.874,1.85c0,0.766-0.604,1.421-1.104,1.702v4.19c0.5,0.282,1.104,0.939,1.104,1.705
		c0,1.021-0.841,2.08-1.863,2.08c-0.765,0-1.433-0.397-1.715-0.897H18V22h5.526c0.187-0.5,0.474-1.199,0.974-1.387v-4.19
		C24,16.236,23.713,16,23.526,15.5h-9.248C14.09,16,13.5,16.236,13.5,16.423v11.779c0,0.188,0.59,0.798,0.778,1.298H31v-5.479
		c-1-0.282-1.127-0.938-1.127-1.704c0-0.765,0.127-1.423,1.127-1.705V8.835C30.5,8.647,30.032,8.5,29.845,8H7.958
		C7.771,8.5,7.5,8.647,7,8.835v11.778c0.5,0.282,1.126,0.939,1.126,1.705c0,0.766-0.626,1.422-1.126,1.704V37.5h31V0H0z"/>
</g>
<g>
</g>
<g>
</g>
<g>
</g>
<g>
</g>
<g>
</g>
<g>
</g>
</svg>
