<?xml version="1.0" encoding="utf-8"?>
<!-- Generator: Adobe Illustrator 16.0.4, SVG Export Plug-In . SVG Version: 6.00 Build 0)  -->
<!DOCTYPE svg PUBLIC "-//W3C//DTD SVG 1.1//EN" "http://www.w3.org/Graphics/SVG/1.1/DTD/svg11.dtd">
<svg version="1.1" id="Layer_1" xmlns="http://www.w3.org/2000/svg" xmlns:xlink="http://www.w3.org/1999/xlink" x="0px" y="0px"
	 width="180px" height="76px" viewBox="0 0 180 76" enable-background="new 0 0 180 76" xml:space="preserve">
<g>
	<g>
		<path fill="#347277" d="M44.67,37.579c-5.977,2.947-8.284,5.895-8.284,10.947h-18.77c0-8.947,2.936-14.737,13.631-19.789
			c4.404-2.106,6.501-3.58,6.501-6.527c0-3.158-2.517-5.053-8.179-5.053c-7.445,0-14.156,2.842-20.238,6.948L0,9.052
			C8.704,3.474,18.246,0,29.885,0c17.091,0,27.787,6.737,27.787,20.21C57.672,28.632,53.688,33.158,44.67,37.579z M26.844,76
			c-6.292,0-10.905-4.736-10.905-10.947c0-6.21,4.613-10.736,10.905-10.736S37.75,58.843,37.75,65.053
			C37.75,71.264,33.135,76,26.844,76z"/>
	</g>
	<g>
		<path fill="#347277" d="M106.564,37.579c-5.977,2.947-8.284,5.895-8.284,10.947h-18.77c0-8.947,2.936-14.737,13.631-19.789
			c4.404-2.106,6.501-3.58,6.501-6.527c0-3.158-2.517-5.053-8.179-5.053c-7.444,0-14.155,2.842-20.238,6.948L61.895,9.052
			C70.599,3.474,80.141,0,91.78,0c17.092,0,27.787,6.737,27.787,20.21C119.567,28.632,115.583,33.158,106.564,37.579z M88.739,76
			c-6.292,0-10.905-4.736-10.905-10.947c0-6.21,4.613-10.736,10.905-10.736s10.905,4.526,10.905,10.736
			C99.644,71.264,95.03,76,88.739,76z"/>
	</g>
	<g>
		<path fill="#347277" d="M166.998,37.579c-5.977,2.947-8.285,5.895-8.285,10.947h-18.77c0-8.947,2.936-14.737,13.633-19.789
			c4.404-2.106,6.5-3.58,6.5-6.527c0-3.158-2.516-5.053-8.178-5.053c-7.445,0-14.156,2.842-20.238,6.948l-9.332-15.053
			C131.031,3.474,140.574,0,152.213,0C169.305,0,180,6.737,180,20.21C180,28.632,176.016,33.158,166.998,37.579z M149.172,76
			c-6.293,0-10.906-4.736-10.906-10.947c0-6.21,4.613-10.736,10.906-10.736c6.291,0,10.904,4.526,10.904,10.736
			C160.076,71.264,155.463,76,149.172,76z"/>
	</g>
</g>
<g>
</g>
<g>
</g>
<g>
</g>
<g>
</g>
<g>
</g>
<g>
</g>
</svg>
