<?xml version="1.0" encoding="utf-8"?>
<!-- Generator: Adobe Illustrator 16.0.4, SVG Export Plug-In . SVG Version: 6.00 Build 0)  -->
<!DOCTYPE svg PUBLIC "-//W3C//DTD SVG 1.1//EN" "http://www.w3.org/Graphics/SVG/1.1/DTD/svg11.dtd">
<svg version="1.1" id="Layer_1" xmlns="http://www.w3.org/2000/svg" xmlns:xlink="http://www.w3.org/1999/xlink" x="0px" y="0px"
	 width="100px" height="800px" viewBox="0 0 100 800" enable-background="new 0 0 100 800" xml:space="preserve" preserveAspectRatio="none">
<g opacity="0.1">
	<line fill="none" stroke="#6B7676" stroke-width="0.5" stroke-miterlimit="10" x1="0" y1="0" x2="100" y2="0"/>
	<line fill="none" stroke="#6B7676" stroke-width="0.5" stroke-miterlimit="10" x1="0" y1="780.078" x2="100" y2="780.078"/>
	<line fill="none" stroke="#6B7676" stroke-width="0.5" stroke-miterlimit="10" x1="0" y1="759.961" x2="100" y2="759.961"/>
	<line fill="none" stroke="#6B7676" stroke-width="0.5" stroke-miterlimit="10" x1="0" y1="740.039" x2="100" y2="740.039"/>
	<line fill="none" stroke="#6B7676" stroke-width="0.5" stroke-miterlimit="10" x1="0" y1="719.922" x2="100" y2="719.922"/>
	<line fill="none" stroke="#6B7676" stroke-width="0.5" stroke-miterlimit="10" x1="0" y1="700" x2="100" y2="700"/>
	<line fill="none" stroke="#6B7676" stroke-width="0.5" stroke-miterlimit="10" x1="0" y1="680.078" x2="100" y2="680.078"/>
	<line fill="none" stroke="#6B7676" stroke-width="0.5" stroke-miterlimit="10" x1="0" y1="659.961" x2="100" y2="659.961"/>
	<line fill="none" stroke="#6B7676" stroke-width="0.5" stroke-miterlimit="10" x1="0" y1="640.039" x2="100" y2="640.039"/>
	<line fill="none" stroke="#6B7676" stroke-width="0.5" stroke-miterlimit="10" x1="0" y1="619.922" x2="100" y2="619.922"/>
	<line fill="none" stroke="#6B7676" stroke-width="0.5" stroke-miterlimit="10" x1="0" y1="600" x2="100" y2="600"/>
	<line fill="none" stroke="#6B7676" stroke-width="0.5" stroke-miterlimit="10" x1="0" y1="580.078" x2="100" y2="580.078"/>
	<line fill="none" stroke="#6B7676" stroke-width="0.5" stroke-miterlimit="10" x1="0" y1="559.961" x2="100" y2="559.961"/>
	<line fill="none" stroke="#6B7676" stroke-width="0.5" stroke-miterlimit="10" x1="0" y1="540.039" x2="100" y2="540.039"/>
	<line fill="none" stroke="#6B7676" stroke-width="0.5" stroke-miterlimit="10" x1="0" y1="519.922" x2="100" y2="519.922"/>
	<line fill="none" stroke="#6B7676" stroke-width="0.5" stroke-miterlimit="10" x1="0" y1="500" x2="100" y2="500"/>
	<line fill="none" stroke="#6B7676" stroke-width="0.5" stroke-miterlimit="10" x1="0" y1="480.078" x2="100" y2="480.078"/>
	<line fill="none" stroke="#6B7676" stroke-width="0.5" stroke-miterlimit="10" x1="0" y1="459.961" x2="100" y2="459.961"/>
	<line fill="none" stroke="#6B7676" stroke-width="0.5" stroke-miterlimit="10" x1="0" y1="440.039" x2="100" y2="440.039"/>
	<line fill="none" stroke="#6B7676" stroke-width="0.5" stroke-miterlimit="10" x1="0" y1="419.922" x2="100" y2="419.922"/>
	<line fill="none" stroke="#6B7676" stroke-width="0.5" stroke-miterlimit="10" x1="0" y1="400" x2="100" y2="400"/>
	<line fill="none" stroke="#6B7676" stroke-width="0.5" stroke-miterlimit="10" x1="0" y1="380.078" x2="100" y2="380.078"/>
	<line fill="none" stroke="#6B7676" stroke-width="0.5" stroke-miterlimit="10" x1="0" y1="359.961" x2="100" y2="359.961"/>
	<line fill="none" stroke="#6B7676" stroke-width="0.5" stroke-miterlimit="10" x1="0" y1="340.039" x2="100" y2="340.039"/>
	<line fill="none" stroke="#6B7676" stroke-width="0.5" stroke-miterlimit="10" x1="0" y1="319.922" x2="100" y2="319.922"/>
	<line fill="none" stroke="#6B7676" stroke-width="0.5" stroke-miterlimit="10" x1="0" y1="300" x2="100" y2="300"/>
	<line fill="none" stroke="#6B7676" stroke-width="0.5" stroke-miterlimit="10" x1="0" y1="280.078" x2="100" y2="280.078"/>
	<line fill="none" stroke="#6B7676" stroke-width="0.5" stroke-miterlimit="10" x1="0" y1="259.961" x2="100" y2="259.961"/>
	<line fill="none" stroke="#6B7676" stroke-width="0.5" stroke-miterlimit="10" x1="0" y1="240.039" x2="100" y2="240.039"/>
	<line fill="none" stroke="#6B7676" stroke-width="0.5" stroke-miterlimit="10" x1="0" y1="219.922" x2="100" y2="219.922"/>
	<line fill="none" stroke="#6B7676" stroke-width="0.5" stroke-miterlimit="10" x1="0" y1="200" x2="100" y2="200"/>
	<line fill="none" stroke="#6B7676" stroke-width="0.5" stroke-miterlimit="10" x1="0" y1="180.078" x2="100" y2="180.078"/>
	<line fill="none" stroke="#6B7676" stroke-width="0.5" stroke-miterlimit="10" x1="0" y1="159.961" x2="100" y2="159.961"/>
	<line fill="none" stroke="#6B7676" stroke-width="0.5" stroke-miterlimit="10" x1="0" y1="140.039" x2="100" y2="140.039"/>
	<line fill="none" stroke="#6B7676" stroke-width="0.5" stroke-miterlimit="10" x1="0" y1="119.922" x2="100" y2="119.922"/>
	<line fill="none" stroke="#6B7676" stroke-width="0.5" stroke-miterlimit="10" x1="0" y1="100" x2="100" y2="100"/>
	<line fill="none" stroke="#6B7676" stroke-width="0.5" stroke-miterlimit="10" x1="0" y1="80.078" x2="100" y2="80.078"/>
	<line fill="none" stroke="#6B7676" stroke-width="0.5" stroke-miterlimit="10" x1="0" y1="59.961" x2="100" y2="59.961"/>
	<line fill="none" stroke="#6B7676" stroke-width="0.5" stroke-miterlimit="10" x1="0" y1="40.039" x2="100" y2="40.039"/>
	<line fill="none" stroke="#6B7676" stroke-width="0.5" stroke-miterlimit="10" x1="0" y1="19.922" x2="100" y2="19.922"/>
	<line fill="none" stroke="#6B7676" stroke-width="0.5" stroke-miterlimit="10" x1="0" y1="800" x2="100" y2="800"/>
	<line fill="none" stroke="#6B7676" stroke-width="0.5" stroke-miterlimit="10" x1="0" y1="0" x2="0" y2="800"/>
	<line fill="none" stroke="#6B7676" stroke-width="0.5" stroke-miterlimit="10" x1="100" y1="0" x2="100" y2="800"/>
</g>
<g opacity="0.2">
	<line fill="none" stroke="#6B7676" stroke-miterlimit="10" x1="0" y1="0" x2="100" y2="0"/>
	<line fill="none" stroke="#6B7676" stroke-miterlimit="10" x1="0" y1="719.922" x2="100" y2="719.922"/>
	<line fill="none" stroke="#6B7676" stroke-miterlimit="10" x1="0" y1="640.039" x2="100" y2="640.039"/>
	<line fill="none" stroke="#6B7676" stroke-miterlimit="10" x1="0" y1="559.961" x2="100" y2="559.961"/>
	<line fill="none" stroke="#6B7676" stroke-miterlimit="10" x1="0" y1="480.078" x2="100" y2="480.078"/>
	<line fill="none" stroke="#6B7676" stroke-miterlimit="10" x1="0" y1="400" x2="100" y2="400"/>
	<line fill="none" stroke="#6B7676" stroke-miterlimit="10" x1="0" y1="319.922" x2="100" y2="319.922"/>
	<line fill="none" stroke="#6B7676" stroke-miterlimit="10" x1="0" y1="240.039" x2="100" y2="240.039"/>
	<line fill="none" stroke="#6B7676" stroke-miterlimit="10" x1="0" y1="159.961" x2="100" y2="159.961"/>
	<line fill="none" stroke="#6B7676" stroke-miterlimit="10" x1="0" y1="80.078" x2="100" y2="80.078"/>
	<line fill="none" stroke="#6B7676" stroke-miterlimit="10" x1="0" y1="800" x2="100" y2="800"/>
	<line fill="none" stroke="#6B7676" stroke-miterlimit="10" x1="0" y1="0" x2="0" y2="800"/>
	<line fill="none" stroke="#6B7676" stroke-miterlimit="10" x1="100" y1="0" x2="100" y2="800"/>
</g>
<g>
</g>
<g>
</g>
<g>
</g>
<g>
</g>
<g>
</g>
<g>
</g>
</svg>
