<?xml version="1.0" encoding="utf-8"?>
<!-- Generator: Adobe Illustrator 16.0.4, SVG Export Plug-In . SVG Version: 6.00 Build 0)  -->
<!DOCTYPE svg PUBLIC "-//W3C//DTD SVG 1.1//EN" "http://www.w3.org/Graphics/SVG/1.1/DTD/svg11.dtd">
<svg version="1.1" id="Layer_1" xmlns="http://www.w3.org/2000/svg" xmlns:xlink="http://www.w3.org/1999/xlink" x="0px" y="0px"
	 width="100px" height="800px" viewBox="0 0 100 800" enable-background="new 0 0 100 800" xml:space="preserve" preserveAspectRatio="none">
<g>
</g>
<g opacity="0.1">
	<rect fill="none" stroke="#6B7676" stroke-width="0.5" stroke-miterlimit="10" width="100" height="800"/>
	<line fill="none" stroke="#6B7676" stroke-width="0.5" stroke-miterlimit="10" x1="0" y1="775" x2="100" y2="775"/>
	<line fill="none" stroke="#6B7676" stroke-width="0.5" stroke-miterlimit="10" x1="0" y1="750" x2="100" y2="750"/>
	<line fill="none" stroke="#6B7676" stroke-width="0.5" stroke-miterlimit="10" x1="0" y1="725" x2="100" y2="725"/>
	<line fill="none" stroke="#6B7676" stroke-width="0.5" stroke-miterlimit="10" x1="0" y1="700" x2="100" y2="700"/>
	<line fill="none" stroke="#6B7676" stroke-width="0.5" stroke-miterlimit="10" x1="0" y1="675" x2="100" y2="675"/>
	<line fill="none" stroke="#6B7676" stroke-width="0.5" stroke-miterlimit="10" x1="0" y1="650" x2="100" y2="650"/>
	<line fill="none" stroke="#6B7676" stroke-width="0.5" stroke-miterlimit="10" x1="0" y1="625" x2="100" y2="625"/>
	<line fill="none" stroke="#6B7676" stroke-width="0.5" stroke-miterlimit="10" x1="0" y1="600" x2="100" y2="600"/>
	<line fill="none" stroke="#6B7676" stroke-width="0.5" stroke-miterlimit="10" x1="0" y1="575" x2="100" y2="575"/>
	<line fill="none" stroke="#6B7676" stroke-width="0.5" stroke-miterlimit="10" x1="0" y1="550" x2="100" y2="550"/>
	<line fill="none" stroke="#6B7676" stroke-width="0.5" stroke-miterlimit="10" x1="0" y1="525" x2="100" y2="525"/>
	<line fill="none" stroke="#6B7676" stroke-width="0.5" stroke-miterlimit="10" x1="0" y1="500" x2="100" y2="500"/>
	<line fill="none" stroke="#6B7676" stroke-width="0.5" stroke-miterlimit="10" x1="0" y1="475" x2="100" y2="475"/>
	<line fill="none" stroke="#6B7676" stroke-width="0.5" stroke-miterlimit="10" x1="0" y1="450" x2="100" y2="450"/>
	<line fill="none" stroke="#6B7676" stroke-width="0.5" stroke-miterlimit="10" x1="0" y1="425" x2="100" y2="425"/>
	<line fill="none" stroke="#6B7676" stroke-width="0.5" stroke-miterlimit="10" x1="0" y1="400" x2="100" y2="400"/>
	<line fill="none" stroke="#6B7676" stroke-width="0.5" stroke-miterlimit="10" x1="0" y1="375" x2="100" y2="375"/>
	<line fill="none" stroke="#6B7676" stroke-width="0.5" stroke-miterlimit="10" x1="0" y1="350" x2="100" y2="350"/>
	<line fill="none" stroke="#6B7676" stroke-width="0.5" stroke-miterlimit="10" x1="0" y1="325" x2="100" y2="325"/>
	<line fill="none" stroke="#6B7676" stroke-width="0.5" stroke-miterlimit="10" x1="0" y1="300" x2="100" y2="300"/>
	<line fill="none" stroke="#6B7676" stroke-width="0.5" stroke-miterlimit="10" x1="0" y1="275" x2="100" y2="275"/>
	<line fill="none" stroke="#6B7676" stroke-width="0.5" stroke-miterlimit="10" x1="0" y1="250" x2="100" y2="250"/>
	<line fill="none" stroke="#6B7676" stroke-width="0.5" stroke-miterlimit="10" x1="0" y1="225" x2="100" y2="225"/>
	<line fill="none" stroke="#6B7676" stroke-width="0.5" stroke-miterlimit="10" x1="0" y1="200" x2="100" y2="200"/>
	<line fill="none" stroke="#6B7676" stroke-width="0.5" stroke-miterlimit="10" x1="0" y1="175" x2="100" y2="175"/>
	<line fill="none" stroke="#6B7676" stroke-width="0.5" stroke-miterlimit="10" x1="0" y1="150" x2="100" y2="150"/>
	<line fill="none" stroke="#6B7676" stroke-width="0.5" stroke-miterlimit="10" x1="0" y1="125" x2="100" y2="125"/>
	<line fill="none" stroke="#6B7676" stroke-width="0.5" stroke-miterlimit="10" x1="0" y1="100" x2="100" y2="100"/>
	<line fill="none" stroke="#6B7676" stroke-width="0.5" stroke-miterlimit="10" x1="0" y1="75" x2="100" y2="75"/>
	<line fill="none" stroke="#6B7676" stroke-width="0.5" stroke-miterlimit="10" x1="0" y1="50" x2="100" y2="50"/>
	<line fill="none" stroke="#6B7676" stroke-width="0.5" stroke-miterlimit="10" x1="0" y1="25" x2="100" y2="25"/>
</g>
<g>
	<line fill="none" x1="0" y1="0" x2="100" y2="0"/>
	<line fill="none" x1="0" y1="700" x2="100" y2="700"/>
	<line fill="none" x1="0" y1="600" x2="100" y2="600"/>
	<line fill="none" x1="0" y1="500" x2="100" y2="500"/>
	<line fill="none" x1="0" y1="400" x2="100" y2="400"/>
	<line fill="none" x1="0" y1="300" x2="100" y2="300"/>
	<line fill="none" x1="0" y1="200" x2="100" y2="200"/>
	<line fill="none" x1="0" y1="100" x2="100" y2="100"/>
	<line fill="none" x1="0" y1="800" x2="100" y2="800"/>
	<line fill="none" x1="0" y1="0" x2="0" y2="800"/>
	<line fill="none" x1="100" y1="0" x2="100" y2="800"/>
</g>
<g opacity="0.2">
	<g>
		<path fill="#6B7676" d="M99,1v798H1V1H99 M100,0H0v800h100V0L100,0z"/>
	</g>
	<line fill="none" stroke="#6B7676" stroke-miterlimit="10" x1="0" y1="700" x2="100" y2="700"/>
	<line fill="none" stroke="#6B7676" stroke-miterlimit="10" x1="0" y1="600" x2="100" y2="600"/>
	<line fill="none" stroke="#6B7676" stroke-miterlimit="10" x1="0" y1="500" x2="100" y2="500"/>
	<line fill="none" stroke="#6B7676" stroke-miterlimit="10" x1="0" y1="400" x2="100" y2="400"/>
	<line fill="none" stroke="#6B7676" stroke-miterlimit="10" x1="0" y1="300" x2="100" y2="300"/>
	<line fill="none" stroke="#6B7676" stroke-miterlimit="10" x1="0" y1="200" x2="100" y2="200"/>
	<line fill="none" stroke="#6B7676" stroke-miterlimit="10" x1="0" y1="100" x2="100" y2="100"/>
</g>
</svg>
