<?xml version="1.0" encoding="UTF-8" standalone="no"?>
<!-- Generator: Adobe Illustrator 16.0.4, SVG Export Plug-In . SVG Version: 6.00 Build 0)  -->
<!DOCTYPE svg  PUBLIC '-//W3C//DTD SVG 1.1//EN'  'http://www.w3.org/Graphics/SVG/1.1/DTD/svg11.dtd'>
<svg id="Layer_1" xmlns="http://www.w3.org/2000/svg" xml:space="preserve" height="601px" viewBox="0 0 941 601" width="941px" version="1.1" y="0px" x="0px" preserveAspectRatio="none" xmlns:xlink="http://www.w3.org/1999/xlink" enable-background="new 0 0 941 601">
<g opacity=".1" stroke="#6B7676" stroke-width=".5" stroke-miterlimit="10" fill="none">
	<line y2=".5" x1=".5" x2="470.5" y1=".5"/>
	<line y2="600.5" x1=".5" x2="470.5" y1="600.5"/>
	<line y2="570.62" x1=".5" x2="470.5" y1="570.62"/>
	<line y2="540.44" x1=".5" x2="470.5" y1="540.44"/>
	<line y2="510.56" x1=".5" x2="470.5" y1="510.56"/>
	<line y2="480.38" x1=".5" x2="470.5" y1="480.38"/>
	<line y2="450.5" x1=".5" x2="470.5" y1="450.5"/>
	<line y2="420.62" x1=".5" x2="470.5" y1="420.62"/>
	<line y2="390.44" x1=".5" x2="470.5" y1="390.44"/>
	<line y2="360.56" x1=".5" x2="470.5" y1="360.56"/>
	<line y2="330.38" x1=".5" x2="470.5" y1="330.38"/>
	<line y2="300.5" x1=".5" x2="470.5" y1="300.5"/>
	<line y2="270.62" x1=".5" x2="470.5" y1="270.62"/>
	<line y2="240.44" x1=".5" x2="470.5" y1="240.44"/>
	<line y2="210.56" x1=".5" x2="470.5" y1="210.56"/>
	<line y2="180.38" x1=".5" x2="470.5" y1="180.38"/>
	<line y2="150.5" x1=".5" x2="470.5" y1="150.5"/>
	<line y2="120.62" x1=".5" x2="470.5" y1="120.62"/>
	<line y2="90.441" x1=".5" x2="470.5" y1="90.441"/>
	<line y2="60.559" x1=".5" x2="470.5" y1="60.559"/>
	<line y2="30.383" x1=".5" x2="470.5" y1="30.383"/>
	<line y2="600.5" x1=".5" x2=".5" y1=".5"/>
	<line y2="600.5" x1="470.5" x2="470.5" y1=".5"/>
</g>
<g opacity=".1" stroke="#6B7676" stroke-width=".5" stroke-miterlimit="10" fill="none">
	<line y2=".5" x1="470.5" x2="940.5" y1=".5"/>
	<line y2="600.5" x1="470.5" x2="940.5" y1="600.5"/>
	<line y2="570.62" x1="470.5" x2="940.5" y1="570.62"/>
	<line y2="540.44" x1="470.5" x2="940.5" y1="540.44"/>
	<line y2="510.56" x1="470.5" x2="940.5" y1="510.56"/>
	<line y2="480.38" x1="470.5" x2="940.5" y1="480.38"/>
	<line y2="450.5" x1="470.5" x2="940.5" y1="450.5"/>
	<line y2="420.62" x1="470.5" x2="940.5" y1="420.62"/>
	<line y2="390.44" x1="470.5" x2="940.5" y1="390.44"/>
	<line y2="360.56" x1="470.5" x2="940.5" y1="360.56"/>
	<line y2="330.38" x1="470.5" x2="940.5" y1="330.38"/>
	<line y2="300.5" x1="470.5" x2="940.5" y1="300.5"/>
	<line y2="270.62" x1="470.5" x2="940.5" y1="270.62"/>
	<line y2="240.44" x1="470.5" x2="940.5" y1="240.44"/>
	<line y2="210.56" x1="470.5" x2="940.5" y1="210.56"/>
	<line y2="180.38" x1="470.5" x2="940.5" y1="180.38"/>
	<line y2="150.5" x1="470.5" x2="940.5" y1="150.5"/>
	<line y2="120.62" x1="470.5" x2="940.5" y1="120.62"/>
	<line y2="90.441" x1="470.5" x2="940.5" y1="90.441"/>
	<line y2="60.559" x1="470.5" x2="940.5" y1="60.559"/>
	<line y2="30.383" x1="470.5" x2="940.5" y1="30.383"/>
	<line y2="600.5" x1="470.5" x2="470.5" y1=".5"/>
	<line y2="600.5" x1="940.5" x2="940.5" y1=".5"/>
</g>
<g opacity=".2" stroke="#6B7676" stroke-width="2" stroke-miterlimit="10" fill="none">
		<line y2=".5" x1=".5" x2="470.5" y1=".5"/>
		<line y2="600.5" x1=".5" x2="470.5" y1="600.5"/>
		<line y2="480.38" x1=".5" x2="470.5" y1="480.38"/>
		<line y2="360.56" x1=".5" x2="470.5" y1="360.56"/>
		<line y2="240.44" x1=".5" x2="470.5" y1="240.44"/>
		<line y2="120.62" x1=".5" x2="470.5" y1="120.62"/>
		<polyline points="470.5 0.5 470.5 600.5 0.5 600.5 0.5 0.5"/>
		<line y2=".5" x1="470.5" x2="940.5" y1=".5"/>
		<line y2="600.5" x1="470.5" x2="940.5" y1="600.5"/>
		<line y2="480.38" x1="470.5" x2="940.5" y1="480.38"/>
		<line y2="360.56" x1="470.5" x2="940.5" y1="360.56"/>
		<line y2="240.44" x1="470.5" x2="940.5" y1="240.44"/>
		<line y2="120.62" x1="470.5" x2="940.5" y1="120.62"/>
		<polyline points="940.5 0.5 940.5 600.5 470.5 600.5 470.5 0.5"/>
</g>
</svg>
