<?xml version="1.0" encoding="utf-8"?>
<!-- Generator: Adobe Illustrator 16.0.4, SVG Export Plug-In . SVG Version: 6.00 Build 0)  -->
<!DOCTYPE svg PUBLIC "-//W3C//DTD SVG 1.1//EN" "http://www.w3.org/Graphics/SVG/1.1/DTD/svg11.dtd">
<svg version="1.1" id="Layer_1" xmlns="http://www.w3.org/2000/svg" xmlns:xlink="http://www.w3.org/1999/xlink" x="0px" y="0px"
	 width="920px" height="91.924px" viewBox="0 0 920 91.924" enable-background="new 0 0 920 91.924" xml:space="preserve">
<g>
	<rect x="0" fill="#347277" width="180" height="76"/>
	<rect x="188" fill="#347277" width="359" height="76"/>
	<rect x="556" y="-1" fill="#6B7676" width="364" height="76"/>
	<g>
		<g>
			<line fill="none" stroke="#DAE4E3" stroke-width="2" stroke-miterlimit="10" x1="367" y1="0" x2="367" y2="1"/>
			
				<line fill="none" stroke="#DAE4E3" stroke-width="2" stroke-miterlimit="10" stroke-dasharray="2,2" x1="367" y1="3" x2="367" y2="74"/>
			<line fill="none" stroke="#DAE4E3" stroke-width="2" stroke-miterlimit="10" x1="367" y1="75" x2="367" y2="76"/>
		</g>
	</g>
	<g>
		<path fill="#FFFFFF" d="M43.355,37.884h-3.852v6.21h-3.501V26.566h7.653c3.301,0,6.027,1.828,6.027,5.559
			C49.683,36.182,46.982,37.884,43.355,37.884z M43.531,29.972h-4.027v4.507h4.077c1.625,0,2.501-0.751,2.501-2.279
			C46.082,30.673,45.081,29.972,43.531,29.972z"/>
		<path fill="#FFFFFF" d="M63.166,44.094l-3.126-6.31h-3.526v6.31h-3.501V26.566h8.153c3.301,0,6.027,1.828,6.027,5.559
			c0,2.629-1.125,4.282-3.352,5.158l3.352,6.811H63.166z M61.09,29.972h-4.577v4.507h4.577c1.626,0,2.501-0.751,2.501-2.279
			C63.591,30.623,62.641,29.972,61.09,29.972z"/>
		<path fill="#FFFFFF" d="M70.872,44.094V26.566h12.154v3.431h-8.653v3.03h5.027v3.405h-5.027v4.231h9.028v3.431H70.872z"/>
		<path fill="#FFFFFF" d="M87.13,44.094V26.566h3.501v14.072h8.778v3.456H87.13z"/>
		<path fill="#FFFFFF" d="M108.641,44.37c-4.777,0-7.603-3.706-7.603-9.039c0-5.333,2.826-9.04,7.603-9.04s7.603,3.706,7.603,9.04
			C116.244,40.664,113.417,44.37,108.641,44.37z M108.641,29.771c-2.826,0-4.001,2.429-4.001,5.559c0,3.13,1.175,5.559,4.001,5.559
			s4.001-2.429,4.001-5.559C112.642,32.2,111.467,29.771,108.641,29.771z"/>
		<path fill="#FFFFFF" d="M130.852,44.094l-1.375-3.906h-6.402l-1.375,3.906h-3.751l6.702-17.528h3.401l6.652,17.528H130.852z
			 M127.15,33.678c-0.35-1.027-0.7-2.078-0.875-2.729c-0.175,0.651-0.525,1.703-0.875,2.729l-1.125,3.18h4.001L127.15,33.678z"/>
		<path fill="#FFFFFF" d="M143.185,44.094h-5.227V26.566h5.477c5.001,0,8.703,2.354,8.703,8.764
			C152.138,41.49,147.687,44.094,143.185,44.094z M143.31,29.972h-1.851v10.717h1.726c3.677,0,5.352-2.153,5.352-5.358
			C148.537,31.75,147.011,29.972,143.31,29.972z"/>
	</g>
	<g>
		<path fill="#FFFFFF" d="M257.352,44.094h-7.953V26.566h8.028c3.401,0,5.552,1.627,5.552,4.632c0,1.502-0.7,2.705-1.851,3.405
			c1.401,0.626,2.451,1.903,2.451,3.831C263.58,42.116,261.104,44.094,257.352,44.094z M257.277,29.796h-4.452v3.331h4.626
			c1.451,0,1.976-0.676,1.976-1.653C259.428,30.373,258.803,29.796,257.277,29.796z M257.477,36.232h-4.651v4.532h4.651
			c1.701,0,2.501-0.902,2.501-2.279C259.978,36.983,259.178,36.232,257.477,36.232z"/>
		<path fill="#FFFFFF" d="M273.661,44.37c-4.777,0-7.603-3.706-7.603-9.039c0-5.333,2.826-9.04,7.603-9.04s7.603,3.706,7.603,9.04
			C281.264,40.664,278.438,44.37,273.661,44.37z M273.661,29.771c-2.826,0-4.001,2.429-4.001,5.559c0,3.13,1.175,5.559,4.001,5.559
			s4.001-2.429,4.001-5.559C277.663,32.2,276.487,29.771,273.661,29.771z"/>
		<path fill="#FFFFFF" d="M291.521,44.37c-4.777,0-7.603-3.706-7.603-9.039c0-5.333,2.826-9.04,7.603-9.04s7.603,3.706,7.603,9.04
			C299.124,40.664,296.298,44.37,291.521,44.37z M291.521,29.771c-2.826,0-4.001,2.429-4.001,5.559c0,3.13,1.175,5.559,4.001,5.559
			s4.001-2.429,4.001-5.559C295.522,32.2,294.347,29.771,291.521,29.771z"/>
		<path fill="#FFFFFF" d="M309.255,30.022v14.072h-3.501V30.022h-5.027v-3.456h13.555v3.456H309.255z"/>
	</g>
	<g>
		<path fill="#FFFFFF" d="M430.464,44.094h-7.953V26.566h8.028c3.401,0,5.552,1.627,5.552,4.632c0,1.502-0.7,2.705-1.851,3.405
			c1.401,0.626,2.451,1.903,2.451,3.831C436.691,42.116,434.215,44.094,430.464,44.094z M430.389,29.796h-4.452v3.331h4.626
			c1.451,0,1.976-0.676,1.976-1.653C432.54,30.373,431.915,29.796,430.389,29.796z M430.589,36.232h-4.651v4.532h4.651
			c1.701,0,2.501-0.902,2.501-2.279C433.09,36.983,432.29,36.232,430.589,36.232z"/>
		<path fill="#FFFFFF" d="M447.223,44.37c-4.227,0-7.078-2.854-7.078-7.962v-9.841h3.501v9.791c0,2.805,1.351,4.583,3.577,4.583
			c2.226,0,3.601-1.728,3.601-4.532v-9.841h3.501v9.791C454.326,41.44,451.674,44.37,447.223,44.37z"/>
		<path fill="#FFFFFF" d="M458.956,44.094V26.566h3.501v17.528H458.956z"/>
		<path fill="#FFFFFF" d="M467.21,44.094V26.566h3.501v14.072h8.778v3.456H467.21z"/>
		<path fill="#FFFFFF" d="M487.946,44.094h-5.227V26.566h5.477c5.002,0,8.703,2.354,8.703,8.764
			C496.899,41.49,492.448,44.094,487.946,44.094z M488.071,29.972h-1.852v10.717h1.727c3.676,0,5.352-2.153,5.352-5.358
			C493.297,31.75,491.772,29.972,488.071,29.972z"/>
	</g>
	<g>
		<path fill="#FFFFFF" d="M689.306,44.094V26.566h3.501v14.072h8.778v3.456H689.306z"/>
		<path fill="#FFFFFF" d="M716.469,44.094l-1.376-3.906h-6.402l-1.376,3.906h-3.751l6.702-17.528h3.401l6.652,17.528H716.469z
			 M712.767,33.678c-0.351-1.027-0.7-2.078-0.875-2.729c-0.175,0.651-0.525,1.703-0.876,2.729l-1.125,3.18h4.002L712.767,33.678z"/>
		<path fill="#FFFFFF" d="M729.652,44.37c-4.226,0-7.077-2.854-7.077-7.962v-9.841h3.501v9.791c0,2.805,1.351,4.583,3.576,4.583
			s3.602-1.728,3.602-4.532v-9.841h3.501v9.791C736.754,41.44,734.104,44.37,729.652,44.37z"/>
		<path fill="#FFFFFF" d="M752.188,44.094l-6.427-9.565c-0.425-0.651-1.001-1.528-1.226-1.979c0,0.651,0.051,2.854,0.051,3.831
			v7.712h-3.451V26.566h3.351l6.202,9.265c0.426,0.651,1,1.527,1.226,1.978c0-0.651-0.05-2.854-0.05-3.831v-7.412h3.451v17.528
			H752.188z"/>
		<path fill="#FFFFFF" d="M769.823,31.675c-0.625-1.202-1.625-1.903-3.201-1.903c-2.625,0-4.126,2.304-4.126,5.559
			c0,3.155,1.525,5.559,4.151,5.559c1.576,0,2.501-0.676,3.426-2.229l2.951,1.753c-1.199,2.479-3.301,3.956-6.477,3.956
			c-4.577,0-7.652-3.505-7.652-9.039c0-5.333,3.201-9.04,7.777-9.04c3.301,0,5.302,1.603,6.402,3.881L769.823,31.675z"/>
		<path fill="#FFFFFF" d="M787.258,44.094v-7.362h-7.178v7.362h-3.502V26.566h3.502v6.711h7.178v-6.711h3.501v17.528H787.258z"/>
	</g>
	<g>
		<path fill="#347277" d="M7.289,89.822H6.136L4.95,84.898c-0.065-0.262-0.185-0.828-0.218-1.013
			C4.7,84.07,4.58,84.636,4.515,84.898l-1.24,4.924H2.143l-1.556-7.626h1.153l0.914,4.816c0.043,0.229,0.141,0.751,0.174,1.002
			c0.043-0.251,0.152-0.763,0.207-0.991l1.219-4.827h0.979l1.24,4.935c0.055,0.207,0.142,0.61,0.185,0.883
			c0.055-0.283,0.12-0.708,0.152-0.894l0.925-4.924h1.11L7.289,89.822z"/>
		<path fill="#347277" d="M10.375,89.822v-7.626h4.906v1.111h-3.764v1.885h2.187v1.112h-2.187v2.407h3.928v1.111H10.375z"/>
		<path fill="#347277" d="M17.064,89.822v-7.626h4.906v1.111h-3.764v1.885h2.187v1.112h-2.187v2.407h3.928v1.111H17.064z"/>
		<path fill="#347277" d="M28.463,89.822l-2.187-3.911l-1.415,1.71v2.201h-1.109v-7.626h1.109v2.615
			c0,0.283-0.011,1.111-0.021,1.352c0.13-0.197,0.631-0.829,0.881-1.145l2.252-2.822h1.294l-2.23,2.768l2.72,4.859H28.463z"/>
		<path fill="#347277" d="M34.704,89.822v-5.84h-1.349v-0.795c0.784-0.055,1.425-0.316,1.567-0.992h0.925v7.626H34.704z"/>
	</g>
	<g>
		<path fill="#347277" d="M200.543,89.822h-1.153l-1.186-4.924c-0.065-0.262-0.186-0.828-0.218-1.013
			c-0.032,0.185-0.152,0.751-0.218,1.013l-1.24,4.924h-1.132l-1.556-7.626h1.153l0.914,4.816c0.044,0.229,0.142,0.751,0.174,1.002
			c0.044-0.251,0.152-0.763,0.207-0.991l1.219-4.827h0.979l1.24,4.935c0.055,0.207,0.142,0.61,0.186,0.883
			c0.055-0.283,0.119-0.708,0.152-0.894l0.925-4.924h1.109L200.543,89.822z"/>
		<path fill="#347277" d="M203.629,89.822v-7.626h4.906v1.111h-3.764v1.885h2.187v1.112h-2.187v2.407h3.928v1.111H203.629z"/>
		<path fill="#347277" d="M210.318,89.822v-7.626h4.906v1.111h-3.764v1.885h2.187v1.112h-2.187v2.407h3.928v1.111H210.318z"/>
		<path fill="#347277" d="M221.717,89.822l-2.187-3.911l-1.415,1.71v2.201h-1.109v-7.626h1.109v2.615
			c0,0.283-0.011,1.111-0.021,1.352c0.131-0.197,0.631-0.829,0.882-1.145l2.252-2.822h1.294l-2.229,2.768l2.72,4.859H221.717z"/>
		<path fill="#347277" d="M229.449,89.822h-1.153c0.043-2.626,0.936-4.674,2.36-6.515h-3.992v-1.111h5.319v1.155
			C230.689,84.8,229.502,86.989,229.449,89.822z"/>
	</g>
	<g>
		<path fill="#347277" d="M380.733,89.822h-1.153l-1.186-4.924c-0.065-0.262-0.185-0.828-0.218-1.013
			c-0.032,0.185-0.152,0.751-0.217,1.013l-1.24,4.924h-1.132l-1.556-7.626h1.153l0.914,4.816c0.043,0.229,0.141,0.751,0.174,1.002
			c0.043-0.251,0.152-0.763,0.207-0.991l1.219-4.827h0.979l1.24,4.935c0.055,0.207,0.142,0.61,0.185,0.883
			c0.055-0.283,0.12-0.708,0.152-0.894l0.925-4.924h1.11L380.733,89.822z"/>
		<path fill="#347277" d="M383.819,89.822v-7.626h4.906v1.111h-3.764v1.885h2.187v1.112h-2.187v2.407h3.928v1.111H383.819z"/>
		<path fill="#347277" d="M390.508,89.822v-7.626h4.906v1.111h-3.764v1.885h2.187v1.112h-2.187v2.407h3.928v1.111H390.508z"/>
		<path fill="#347277" d="M401.907,89.822l-2.187-3.911l-1.415,1.71v2.201h-1.109v-7.626h1.109v2.615
			c0,0.283-0.011,1.111-0.021,1.352c0.13-0.197,0.631-0.829,0.881-1.145l2.252-2.822h1.294l-2.23,2.768l2.72,4.859H401.907z"/>
		<path fill="#347277" d="M408.147,89.822v-5.84h-1.349v-0.795c0.784-0.055,1.425-0.316,1.567-0.992h0.925v7.626H408.147z"/>
		<path fill="#347277" d="M413.347,89.942c-1.077,0-2.208-0.479-2.741-1.264l0.87-0.741c0.468,0.588,1.186,0.871,1.871,0.871
			c1.219,0,1.665-0.468,1.665-1.252c0-0.785-0.587-1.145-1.381-1.145h-0.708v-1.111h0.696c0.708,0,1.077-0.468,1.077-1.046
			c0-0.436-0.315-1.046-1.436-1.046c-0.598,0-1.077,0.262-1.501,0.708l-0.849-0.806c0.642-0.665,1.415-1.035,2.372-1.035
			c1.436,0,2.6,0.741,2.6,2.07c0,0.915-0.402,1.373-0.925,1.667c0.718,0.207,1.24,0.795,1.24,1.744
			C416.197,89.114,415.131,89.942,413.347,89.942z"/>
	</g>
	<g>
		<path fill="#6B7676" d="M570.176,89.822h-1.152l-1.187-4.924c-0.065-0.262-0.185-0.828-0.218-1.013
			c-0.032,0.185-0.152,0.751-0.217,1.013l-1.24,4.924h-1.133l-1.555-7.626h1.152l0.914,4.816c0.044,0.229,0.142,0.751,0.174,1.002
			c0.044-0.251,0.152-0.763,0.207-0.991l1.219-4.827h0.979l1.24,4.935c0.055,0.207,0.143,0.61,0.186,0.883
			c0.055-0.283,0.119-0.708,0.152-0.894l0.925-4.924h1.11L570.176,89.822z"/>
		<path fill="#6B7676" d="M573.262,89.822v-7.626h4.906v1.111h-3.764v1.885h2.188v1.112h-2.188v2.407h3.928v1.111H573.262z"/>
		<path fill="#6B7676" d="M579.952,89.822v-7.626h4.906v1.111h-3.765v1.885h2.187v1.112h-2.187v2.407h3.928v1.111H579.952z"/>
		<path fill="#6B7676" d="M591.35,89.822l-2.187-3.911l-1.415,1.71v2.201h-1.109v-7.626h1.109v2.615c0,0.283-0.01,1.111-0.021,1.352
			c0.131-0.197,0.631-0.829,0.882-1.145l2.252-2.822h1.294l-2.229,2.768l2.72,4.859H591.35z"/>
		<path fill="#6B7676" d="M597.59,89.822v-5.84h-1.349v-0.795c0.784-0.055,1.425-0.316,1.567-0.992h0.924v7.626H597.59z"/>
		<path fill="#6B7676" d="M601.354,89.942v-1.079c1.752-0.076,2.949-0.882,3.438-2.473c-0.533,0.425-1.076,0.61-2.002,0.61
			c-1.381,0-2.557-0.763-2.557-2.386c0-1.667,1.307-2.539,2.981-2.539c1.6,0,2.861,0.882,2.861,3.04
			C606.076,87.109,604.966,89.833,601.354,89.942z M603.17,83.188c-1.152,0-1.783,0.544-1.783,1.405
			c0,0.915,0.642,1.329,1.729,1.329c1.11,0,1.795-0.447,1.795-1.34C604.912,83.841,604.313,83.188,603.17,83.188z"/>
	</g>
</g>
<g>
</g>
<g>
</g>
<g>
</g>
<g>
</g>
<g>
</g>
<g>
</g>
</svg>
