<?xml version="1.0" encoding="utf-8"?>
<!-- Generator: Adobe Illustrator 16.0.4, SVG Export Plug-In . SVG Version: 6.00 Build 0)  -->
<!DOCTYPE svg PUBLIC "-//W3C//DTD SVG 1.1//EN" "http://www.w3.org/Graphics/SVG/1.1/DTD/svg11.dtd">
<svg version="1.1" id="Layer_1" xmlns="http://www.w3.org/2000/svg" xmlns:xlink="http://www.w3.org/1999/xlink" x="0px" y="0px"
	 width="920px" height="111.14px" viewBox="0 -21.197 920 111.14" enable-background="new 0 -21.197 920 111.14"
	 xml:space="preserve">
<g>
	<rect fill="#347277" width="180" height="76"/>
	<rect x="188" fill="#347277" width="359" height="76"/>
	<rect x="556" y="-1" fill="#6B7676" width="364" height="76"/>
	<g>
		<g>
			<line fill="none" stroke="#DAE4E3" stroke-width="2" stroke-miterlimit="10" x1="367" y1="0" x2="367" y2="1"/>
			
				<line fill="none" stroke="#DAE4E3" stroke-width="2" stroke-miterlimit="10" stroke-dasharray="2,2" x1="367" y1="3" x2="367" y2="74"/>
			<line fill="none" stroke="#DAE4E3" stroke-width="2" stroke-miterlimit="10" x1="367" y1="75" x2="367" y2="76"/>
		</g>
	</g>
	<g>
		<path fill="#FFFFFF" d="M43.355,37.884h-3.852v6.21h-3.501V26.566h7.653c3.301,0,6.027,1.828,6.027,5.559
			C49.683,36.182,46.982,37.884,43.355,37.884z M43.531,29.972h-4.027v4.507h4.077c1.625,0,2.501-0.751,2.501-2.279
			C46.082,30.673,45.081,29.972,43.531,29.972z"/>
		<path fill="#FFFFFF" d="M63.166,44.094l-3.126-6.31h-3.526v6.31h-3.501V26.566h8.153c3.301,0,6.027,1.828,6.027,5.559
			c0,2.629-1.125,4.282-3.352,5.158l3.352,6.811H63.166z M61.09,29.972h-4.577v4.507h4.577c1.626,0,2.501-0.751,2.501-2.279
			C63.591,30.623,62.641,29.972,61.09,29.972z"/>
		<path fill="#FFFFFF" d="M70.872,44.094V26.566h12.154v3.431h-8.653v3.03H79.4v3.405h-5.027v4.231h9.028v3.431H70.872z"/>
		<path fill="#FFFFFF" d="M87.13,44.094V26.566h3.501v14.072h8.778v3.456H87.13z"/>
		<path fill="#FFFFFF" d="M108.641,44.37c-4.777,0-7.603-3.706-7.603-9.039s2.826-9.04,7.603-9.04c4.777,0,7.603,3.706,7.603,9.04
			C116.244,40.664,113.417,44.37,108.641,44.37z M108.641,29.771c-2.826,0-4.001,2.429-4.001,5.559s1.175,5.559,4.001,5.559
			c2.826,0,4.001-2.429,4.001-5.559S111.467,29.771,108.641,29.771z"/>
		<path fill="#FFFFFF" d="M130.852,44.094l-1.375-3.906h-6.402l-1.375,3.906h-3.751l6.702-17.528h3.401l6.652,17.528H130.852z
			 M127.15,33.678c-0.35-1.027-0.7-2.078-0.875-2.729c-0.175,0.651-0.525,1.703-0.875,2.729l-1.125,3.18h4.001L127.15,33.678z"/>
		<path fill="#FFFFFF" d="M143.185,44.094h-5.227V26.566h5.477c5.001,0,8.703,2.354,8.703,8.764
			C152.138,41.49,147.687,44.094,143.185,44.094z M143.31,29.972h-1.851v10.717h1.726c3.677,0,5.352-2.153,5.352-5.358
			C148.537,31.75,147.011,29.972,143.31,29.972z"/>
	</g>
	<g>
		<path fill="#FFFFFF" d="M257.352,44.094h-7.953V26.566h8.028c3.401,0,5.552,1.627,5.552,4.632c0,1.502-0.7,2.705-1.851,3.405
			c1.401,0.626,2.451,1.903,2.451,3.831C263.58,42.116,261.104,44.094,257.352,44.094z M257.277,29.796h-4.452v3.331h4.626
			c1.451,0,1.976-0.676,1.976-1.653C259.428,30.373,258.803,29.796,257.277,29.796z M257.477,36.232h-4.651v4.532h4.651
			c1.701,0,2.501-0.902,2.501-2.279C259.978,36.983,259.178,36.232,257.477,36.232z"/>
		<path fill="#FFFFFF" d="M273.661,44.37c-4.777,0-7.603-3.706-7.603-9.039s2.826-9.04,7.603-9.04c4.777,0,7.603,3.706,7.603,9.04
			C281.264,40.664,278.438,44.37,273.661,44.37z M273.661,29.771c-2.826,0-4.001,2.429-4.001,5.559s1.175,5.559,4.001,5.559
			c2.826,0,4.001-2.429,4.001-5.559C277.663,32.2,276.487,29.771,273.661,29.771z"/>
		<path fill="#FFFFFF" d="M291.521,44.37c-4.777,0-7.603-3.706-7.603-9.039s2.826-9.04,7.603-9.04s7.603,3.706,7.603,9.04
			C299.124,40.664,296.298,44.37,291.521,44.37z M291.521,29.771c-2.826,0-4.001,2.429-4.001,5.559s1.175,5.559,4.001,5.559
			s4.001-2.429,4.001-5.559S294.347,29.771,291.521,29.771z"/>
		<path fill="#FFFFFF" d="M309.255,30.022v14.072h-3.501V30.022h-5.027v-3.456h13.555v3.456H309.255z"/>
	</g>
	<g>
		<path fill="#FFFFFF" d="M430.464,44.094h-7.953V26.566h8.028c3.401,0,5.552,1.627,5.552,4.632c0,1.502-0.7,2.705-1.851,3.405
			c1.4,0.626,2.451,1.903,2.451,3.831C436.691,42.116,434.215,44.094,430.464,44.094z M430.389,29.796h-4.451v3.331h4.626
			c1.45,0,1.976-0.676,1.976-1.653C432.54,30.373,431.915,29.796,430.389,29.796z M430.589,36.232h-4.651v4.532h4.651
			c1.701,0,2.501-0.902,2.501-2.279C433.09,36.983,432.29,36.232,430.589,36.232z"/>
		<path fill="#FFFFFF" d="M447.223,44.37c-4.227,0-7.078-2.854-7.078-7.962v-9.841h3.502v9.791c0,2.805,1.351,4.583,3.576,4.583
			c2.227,0,3.602-1.728,3.602-4.532v-9.841h3.501v9.791C454.326,41.44,451.674,44.37,447.223,44.37z"/>
		<path fill="#FFFFFF" d="M458.956,44.094V26.566h3.501v17.528H458.956z"/>
		<path fill="#FFFFFF" d="M467.21,44.094V26.566h3.501v14.072h8.778v3.456H467.21z"/>
		<path fill="#FFFFFF" d="M487.946,44.094h-5.228V26.566h5.478c5.002,0,8.703,2.354,8.703,8.764
			C496.899,41.49,492.448,44.094,487.946,44.094z M488.071,29.972h-1.853v10.717h1.728c3.676,0,5.352-2.153,5.352-5.358
			C493.297,31.75,491.771,29.972,488.071,29.972z"/>
	</g>
	<g>
		<path fill="#FFFFFF" d="M689.306,44.094V26.566h3.501v14.072h8.778v3.456H689.306z"/>
		<path fill="#FFFFFF" d="M716.469,44.094l-1.376-3.906h-6.401l-1.376,3.906h-3.751l6.701-17.528h3.401l6.652,17.528H716.469z
			 M712.767,33.678c-0.351-1.027-0.699-2.078-0.875-2.729c-0.175,0.651-0.524,1.703-0.876,2.729l-1.125,3.18h4.002L712.767,33.678z"
			/>
		<path fill="#FFFFFF" d="M729.652,44.37c-4.227,0-7.077-2.854-7.077-7.962v-9.841h3.501v9.791c0,2.805,1.351,4.583,3.576,4.583
			c2.225,0,3.602-1.728,3.602-4.532v-9.841h3.501v9.791C736.754,41.44,734.104,44.37,729.652,44.37z"/>
		<path fill="#FFFFFF" d="M752.188,44.094l-6.427-9.565c-0.425-0.651-1.001-1.528-1.226-1.979c0,0.651,0.051,2.854,0.051,3.831
			v7.712h-3.451V26.566h3.352l6.202,9.265c0.426,0.651,1,1.527,1.226,1.978c0-0.651-0.05-2.854-0.05-3.831v-7.412h3.451v17.528
			H752.188z"/>
		<path fill="#FFFFFF" d="M769.823,31.675c-0.625-1.202-1.625-1.903-3.201-1.903c-2.625,0-4.126,2.304-4.126,5.559
			c0,3.155,1.525,5.559,4.151,5.559c1.575,0,2.501-0.676,3.426-2.229l2.951,1.753c-1.199,2.479-3.302,3.956-6.478,3.956
			c-4.577,0-7.651-3.505-7.651-9.039c0-5.333,3.2-9.04,7.776-9.04c3.301,0,5.302,1.603,6.402,3.881L769.823,31.675z"/>
		<path fill="#FFFFFF" d="M787.258,44.094v-7.362h-7.178v7.362h-3.502V26.566h3.502v6.711h7.178v-6.711h3.501v17.528H787.258z"/>
	</g>
	<g>
		<path fill="#347277" d="M7.289,89.822H6.136L4.95,84.897c-0.065-0.262-0.185-0.828-0.218-1.013
			C4.7,84.069,4.58,84.636,4.515,84.897l-1.24,4.925H2.143l-1.556-7.626H1.74l0.914,4.816c0.043,0.229,0.141,0.75,0.174,1.002
			c0.043-0.252,0.152-0.764,0.207-0.992l1.219-4.826h0.979l1.24,4.935c0.055,0.207,0.142,0.61,0.185,0.884
			c0.055-0.283,0.12-0.709,0.152-0.895l0.925-4.924h1.11L7.289,89.822z"/>
		<path fill="#347277" d="M10.375,89.822v-7.626h4.906v1.111h-3.764v1.885h2.187v1.111h-2.187v2.407h3.928v1.111H10.375z"/>
		<path fill="#347277" d="M17.064,89.822v-7.626h4.906v1.111h-3.764v1.885h2.187v1.111h-2.187v2.407h3.928v1.111H17.064z"/>
		<path fill="#347277" d="M28.463,89.822l-2.187-3.911l-1.415,1.71v2.201h-1.109v-7.626h1.109v2.615c0,0.282-0.011,1.11-0.021,1.352
			c0.13-0.197,0.631-0.829,0.881-1.145l2.252-2.822h1.294l-2.23,2.768l2.72,4.859L28.463,89.822L28.463,89.822z"/>
		<path fill="#347277" d="M34.704,89.822v-5.841h-1.349v-0.795c0.784-0.055,1.425-0.315,1.567-0.992h0.925v7.627L34.704,89.822
			L34.704,89.822z"/>
	</g>
	<g>
		<path fill="#347277" d="M200.543,89.822h-1.153l-1.186-4.925c-0.065-0.262-0.186-0.828-0.218-1.013
			c-0.032,0.185-0.152,0.751-0.218,1.013l-1.24,4.925h-1.132l-1.556-7.626h1.153l0.914,4.815c0.044,0.229,0.142,0.751,0.174,1.003
			c0.044-0.252,0.152-0.764,0.207-0.992l1.219-4.826h0.979l1.24,4.935c0.055,0.207,0.142,0.61,0.186,0.884
			c0.055-0.283,0.119-0.709,0.152-0.895l0.925-4.924h1.109L200.543,89.822z"/>
		<path fill="#347277" d="M203.629,89.822v-7.626h4.906v1.111h-3.764v1.885h2.187v1.111h-2.187v2.407h3.928v1.111H203.629z"/>
		<path fill="#347277" d="M210.318,89.822v-7.626h4.906v1.111h-3.764v1.885h2.187v1.111h-2.187v2.407h3.928v1.111H210.318z"/>
		<path fill="#347277" d="M221.717,89.822l-2.187-3.911l-1.415,1.71v2.201h-1.109v-7.626h1.109v2.615
			c0,0.282-0.011,1.11-0.021,1.352c0.131-0.197,0.631-0.829,0.882-1.145l2.252-2.822h1.294l-2.229,2.768l2.72,4.859L221.717,89.822
			L221.717,89.822z"/>
		<path fill="#347277" d="M229.449,89.822h-1.153c0.043-2.626,0.936-4.675,2.36-6.515h-3.992v-1.111h5.319v1.154
			C230.689,84.8,229.502,86.989,229.449,89.822z"/>
	</g>
	<g>
		<path fill="#347277" d="M380.733,89.822h-1.153l-1.187-4.925c-0.064-0.262-0.185-0.828-0.218-1.013
			c-0.032,0.185-0.151,0.751-0.217,1.013l-1.24,4.925h-1.132l-1.556-7.626h1.152l0.914,4.815c0.043,0.229,0.142,0.751,0.175,1.003
			c0.043-0.252,0.151-0.764,0.207-0.992l1.219-4.826h0.979l1.24,4.935c0.055,0.207,0.142,0.61,0.185,0.884
			c0.056-0.283,0.12-0.709,0.152-0.895l0.925-4.924h1.11L380.733,89.822z"/>
		<path fill="#347277" d="M383.819,89.822v-7.626h4.905v1.111h-3.764v1.885h2.188v1.111h-2.188v2.407h3.928v1.111H383.819z"/>
		<path fill="#347277" d="M390.508,89.822v-7.626h4.906v1.111h-3.764v1.885h2.187v1.111h-2.187v2.407h3.928v1.111H390.508z"/>
		<path fill="#347277" d="M401.907,89.822l-2.188-3.911l-1.415,1.71v2.201h-1.108v-7.626h1.108v2.615
			c0,0.282-0.011,1.11-0.021,1.352c0.13-0.197,0.631-0.829,0.881-1.145l2.252-2.822h1.294l-2.229,2.768l2.72,4.859L401.907,89.822
			L401.907,89.822z"/>
		<path fill="#347277" d="M408.147,89.822v-5.841h-1.35v-0.795c0.784-0.055,1.425-0.315,1.567-0.992h0.925v7.627L408.147,89.822
			L408.147,89.822z"/>
		<path fill="#347277" d="M413.347,89.942c-1.077,0-2.208-0.479-2.74-1.265l0.869-0.741c0.469,0.588,1.187,0.871,1.871,0.871
			c1.22,0,1.665-0.468,1.665-1.252c0-0.785-0.587-1.145-1.381-1.145h-0.708V85.3h0.696c0.708,0,1.077-0.468,1.077-1.046
			c0-0.437-0.315-1.046-1.437-1.046c-0.598,0-1.077,0.262-1.501,0.708l-0.849-0.806c0.642-0.666,1.415-1.035,2.372-1.035
			c1.436,0,2.6,0.74,2.6,2.07c0,0.914-0.401,1.373-0.925,1.666c0.718,0.207,1.24,0.795,1.24,1.744
			C416.197,89.114,415.131,89.942,413.347,89.942z"/>
	</g>
	<g>
		<path fill="#6B7676" d="M570.176,89.822h-1.151l-1.188-4.925c-0.064-0.262-0.185-0.828-0.218-1.013
			c-0.032,0.185-0.152,0.751-0.217,1.013l-1.24,4.925h-1.133l-1.556-7.626h1.152l0.914,4.815c0.044,0.229,0.142,0.751,0.174,1.003
			c0.044-0.252,0.152-0.764,0.207-0.992l1.219-4.826h0.979l1.24,4.935c0.055,0.207,0.143,0.61,0.186,0.884
			c0.055-0.283,0.119-0.709,0.152-0.895l0.925-4.924h1.11L570.176,89.822z"/>
		<path fill="#6B7676" d="M573.262,89.822v-7.626h4.906v1.111h-3.764v1.885h2.188v1.111h-2.188v2.407h3.928v1.111H573.262z"/>
		<path fill="#6B7676" d="M579.952,89.822v-7.626h4.906v1.111h-3.766v1.885h2.188v1.111h-2.188v2.407h3.929v1.111H579.952z"/>
		<path fill="#6B7676" d="M591.35,89.822l-2.187-3.911l-1.415,1.71v2.201h-1.109v-7.626h1.109v2.615c0,0.282-0.01,1.11-0.021,1.352
			c0.132-0.197,0.632-0.829,0.883-1.145l2.252-2.822h1.294l-2.229,2.768l2.721,4.859L591.35,89.822L591.35,89.822z"/>
		<path fill="#6B7676" d="M597.59,89.822v-5.841h-1.349v-0.795c0.784-0.055,1.425-0.315,1.566-0.992h0.925v7.627L597.59,89.822
			L597.59,89.822z"/>
		<path fill="#6B7676" d="M601.354,89.942v-1.08c1.753-0.075,2.949-0.881,3.438-2.473c-0.533,0.426-1.076,0.61-2.002,0.61
			c-1.381,0-2.557-0.763-2.557-2.386c0-1.667,1.307-2.539,2.98-2.539c1.601,0,2.861,0.882,2.861,3.04
			C606.076,87.108,604.966,89.833,601.354,89.942z M603.17,83.188c-1.152,0-1.783,0.543-1.783,1.404
			c0,0.915,0.643,1.329,1.729,1.329c1.109,0,1.795-0.446,1.795-1.34C604.912,83.841,604.312,83.188,603.17,83.188z"/>
	</g>
</g>
<g>
	<path fill="#347277" d="M6.579-7.779c-3.364,0-5.501-2.77-5.501-6.709s2.137-6.709,5.501-6.709c3.383,0,5.52,2.769,5.52,6.709
		S9.962-7.779,6.579-7.779z M6.579-19.246c-2.268,0-3.513,1.84-3.513,4.758S4.312-9.73,6.579-9.73c2.286,0,3.531-1.84,3.531-4.758
		S8.865-19.246,6.579-19.246z"/>
	<path fill="#347277" d="M22.898-7.983l-5.186-8.159c-0.316-0.483-0.762-1.264-0.966-1.599c0,0.483,0.019,2.286,0.019,3.011v6.747
		h-1.896v-13.01h1.988l4.944,7.936c0.334,0.539,0.892,1.505,1.078,1.84c0-0.483-0.019-2.342-0.019-3.066v-6.709h1.896v13.01H22.898z
		"/>
	<path fill="#347277" d="M28.14-7.983v-13.01h1.951v11.096h6.486v1.914H28.14z"/>
	<path fill="#347277" d="M39.291-7.983v-13.01h1.952v13.01H39.291z"/>
	<path fill="#347277" d="M52.747-7.983l-5.186-8.159c-0.316-0.483-0.762-1.264-0.966-1.599c0,0.483,0.019,2.286,0.019,3.011v6.747
		h-1.896v-13.01h1.988l4.944,7.936c0.334,0.539,0.892,1.505,1.078,1.84c0-0.483-0.019-2.342-0.019-3.066v-6.709h1.896v13.01H52.747z
		"/>
	<path fill="#347277" d="M57.988-7.983v-13.01h8.382v1.896h-6.431v3.215h3.736v1.896h-3.736v4.107h6.709v1.896H57.988z"/>
</g>
<g>
	<path fill="#347277" d="M189.784-7.983v-13.01h1.952v13.01H189.784z"/>
	<path fill="#347277" d="M203.24-7.983l-5.186-8.159c-0.316-0.483-0.762-1.264-0.966-1.599c0,0.483,0.019,2.286,0.019,3.011v6.747
		h-1.896v-13.01h1.988l4.944,7.936c0.334,0.539,0.892,1.505,1.078,1.84c0-0.483-0.019-2.342-0.019-3.066v-6.709h1.896v13.01H203.24z
		"/>
	<path fill="#347277" d="M218.425-19.079v11.095h-1.951v-11.095h-3.792v-1.915h9.534v1.915H218.425z"/>
	<path fill="#347277" d="M232.717-7.983v-5.836h-5.984v5.836h-1.951v-13.01h1.951v5.26h5.984v-5.26h1.952v13.01H232.717z"/>
	<path fill="#347277" d="M238.052-7.983v-13.01h8.382v1.896h-6.431v3.215h3.736v1.896h-3.736v4.107h6.709v1.896H238.052z"/>
	<path fill="#347277" d="M259.388-7.779c-3.364,0-5.501-2.77-5.501-6.709s2.137-6.709,5.501-6.709c2.119,0,3.531,0.854,4.423,2.435
		l-1.729,1.078c-0.669-1.059-1.356-1.561-2.695-1.561c-2.267,0-3.494,1.84-3.494,4.758s1.227,4.758,3.494,4.758
		c1.357,0,2.193-0.558,2.862-1.617l1.617,1.078C262.938-8.671,261.358-7.779,259.388-7.779z"/>
	<path fill="#347277" d="M266.674-7.983v-13.01h1.951v11.096h6.486v1.914H266.674z"/>
	<path fill="#347277" d="M286.319-7.983l-1.097-3.085h-5.204l-1.078,3.085h-2.026l4.684-13.01h2.063l4.739,13.01H286.319z
		 M283.587-15.808c-0.316-0.929-0.836-2.435-0.985-2.992c-0.148,0.558-0.613,2.044-0.948,3.011l-1.041,2.974h4.015L283.587-15.808z"
		/>
	<path fill="#347277" d="M294.646-7.779c-1.896,0-3.531-0.818-4.628-2.1l1.394-1.357c0.874,0.948,2.156,1.542,3.382,1.542
		c1.821,0,2.695-0.632,2.695-1.896c0-1.004-0.762-1.505-2.937-2.156c-2.75-0.818-4.07-1.505-4.07-3.829
		c0-2.249,1.896-3.624,4.293-3.624c1.766,0,3.104,0.65,4.256,1.766l-1.375,1.394c-0.818-0.836-1.747-1.245-3.029-1.245
		c-1.524,0-2.175,0.743-2.175,1.617c0,0.911,0.595,1.357,2.844,2.026c2.565,0.781,4.163,1.599,4.163,3.921
		C299.459-9.377,297.973-7.779,294.646-7.779z"/>
	<path fill="#347277" d="M306.002-7.779c-1.896,0-3.531-0.818-4.628-2.1l1.394-1.357c0.874,0.948,2.156,1.542,3.382,1.542
		c1.821,0,2.695-0.632,2.695-1.896c0-1.004-0.762-1.505-2.936-2.156c-2.751-0.818-4.07-1.505-4.07-3.829
		c0-2.249,1.896-3.624,4.293-3.624c1.766,0,3.104,0.65,4.256,1.766l-1.375,1.394c-0.818-0.836-1.747-1.245-3.029-1.245
		c-1.524,0-2.175,0.743-2.175,1.617c0,0.911,0.595,1.357,2.844,2.026c2.565,0.781,4.163,1.599,4.163,3.921
		C310.815-9.377,309.329-7.779,306.002-7.779z"/>
	<path fill="#347277" d="M320.759-13.299l2.658,5.315h-2.249l-2.583-5.148h-2.937v5.148h-1.914v-13.01h5.706
		c2.268,0,4.182,1.208,4.182,3.884C323.621-15.027,322.524-13.745,320.759-13.299z M319.439-19.153h-3.792v4.182h3.792
		c1.301,0,2.211-0.669,2.211-2.081C321.651-18.41,320.759-19.153,319.439-19.153z"/>
	<path fill="#347277" d="M331.205-7.779c-3.364,0-5.501-2.77-5.501-6.709s2.137-6.709,5.501-6.709c3.382,0,5.52,2.769,5.52,6.709
		S334.587-7.779,331.205-7.779z M331.205-19.246c-2.267,0-3.513,1.84-3.513,4.758s1.246,4.758,3.513,4.758
		c2.286,0,3.531-1.84,3.531-4.758S333.491-19.246,331.205-19.246z"/>
	<path fill="#347277" d="M344.382-7.779c-3.364,0-5.501-2.77-5.501-6.709s2.137-6.709,5.501-6.709c3.383,0,5.52,2.769,5.52,6.709
		S347.765-7.779,344.382-7.779z M344.382-19.246c-2.268,0-3.513,1.84-3.513,4.758s1.245,4.758,3.513,4.758
		c2.286,0,3.531-1.84,3.531-4.758S346.668-19.246,344.382-19.246z"/>
	<path fill="#347277" d="M362.392-7.983v-6.876c0-0.781,0.019-1.915,0.037-2.286c-0.148,0.372-0.52,1.301-0.836,2.044l-3.16,7.323
		l-3.122-7.323c-0.316-0.743-0.688-1.673-0.836-2.044c0.019,0.372,0.037,1.505,0.037,2.286v6.876h-1.84v-13.01h2.007l2.918,6.933
		c0.316,0.743,0.725,1.691,0.892,2.23c0.186-0.539,0.558-1.468,0.874-2.23l2.862-6.933h2.082v13.01H362.392z"/>
</g>
<g>
	<path fill="#6B7676" d="M562.579-7.779c-3.364,0-5.501-2.77-5.501-6.709s2.137-6.709,5.501-6.709c3.383,0,5.521,2.769,5.521,6.709
		S565.962-7.779,562.579-7.779z M562.579-19.246c-2.268,0-3.513,1.84-3.513,4.758s1.245,4.758,3.513,4.758
		c2.286,0,3.531-1.84,3.531-4.758S564.865-19.246,562.579-19.246z"/>
	<path fill="#6B7676" d="M578.898-7.983l-5.186-8.159c-0.316-0.483-0.762-1.264-0.967-1.599c0,0.483,0.019,2.286,0.019,3.011v6.747
		h-1.896v-13.01h1.988l4.943,7.936c0.335,0.539,0.893,1.505,1.078,1.84c0-0.483-0.018-2.342-0.018-3.066v-6.709h1.895v13.01H578.898
		z"/>
	<path fill="#6B7676" d="M594.082-19.079v11.095h-1.951v-11.095h-3.791v-1.915h9.533v1.915H594.082z"/>
	<path fill="#6B7676" d="M608.375-7.983v-5.836h-5.984v5.836h-1.951v-13.01h1.951v5.26h5.984v-5.26h1.951v13.01H608.375z"/>
	<path fill="#6B7676" d="M613.709-7.983v-13.01h8.383v1.896h-6.432v3.215h3.736v1.896h-3.736v4.107h6.71v1.896H613.709z"/>
	<path fill="#6B7676" d="M633.447-7.779c-2.434,0-3.884-1.283-4.534-3.457l1.896-0.558c0.502,1.338,1.282,2.063,2.695,2.063
		c1.877,0,2.62-1.059,2.62-3.531v-7.731h1.951v7.88C638.075-9.619,636.588-7.779,633.447-7.779z"/>
	<path fill="#6B7676" d="M646.253-7.779c-3.364,0-5.501-2.77-5.501-6.709s2.137-6.709,5.501-6.709c3.383,0,5.521,2.769,5.521,6.709
		S649.636-7.779,646.253-7.779z M646.253-19.246c-2.268,0-3.513,1.84-3.513,4.758s1.245,4.758,3.513,4.758
		c2.286,0,3.531-1.84,3.531-4.758S648.539-19.246,646.253-19.246z"/>
	<path fill="#6B7676" d="M659.709-7.983h-5.166v-13.01h5.353c2.267,0,3.735,1.189,3.735,3.383c0,1.319-0.706,2.137-1.654,2.602
		c1.022,0.279,2.193,1.227,2.193,3.03C664.17-9.34,662.553-7.983,659.709-7.983z M659.877-19.209h-3.494v3.364h3.494
		c1.282,0,1.803-0.799,1.803-1.654C661.68-18.465,661.178-19.209,659.877-19.209z M659.914-14.079h-3.531v4.312h3.476
		c1.728,0,2.36-0.874,2.36-2.156C662.219-13.262,661.383-14.079,659.914-14.079z"/>
</g>
</svg>
