<?xml version="1.0" encoding="utf-8"?>
<!-- Generator: Adobe Illustrator 16.0.4, SVG Export Plug-In . SVG Version: 6.00 Build 0)  -->
<!DOCTYPE svg PUBLIC "-//W3C//DTD SVG 1.1//EN" "http://www.w3.org/Graphics/SVG/1.1/DTD/svg11.dtd">
<svg version="1.1" id="Layer_1" xmlns="http://www.w3.org/2000/svg" xmlns:xlink="http://www.w3.org/1999/xlink" x="0px" y="0px"
	 width="44px" height="44px" viewBox="0 0 44 44" enable-background="new 0 0 44 44" xml:space="preserve">
<g>
	<path fill="#347277" d="M41.58,2.42C39.965,0.808,38.022,0,35.751,0H8.25C5.979,0,4.035,0.808,2.42,2.42
		C0.807,4.034,0,5.978,0,8.249V35.75c0,2.271,0.807,4.215,2.42,5.829C4.035,43.194,5.979,44,8.25,44h27.501
		c2.271,0,4.214-0.806,5.829-2.42C43.193,39.965,44,38.021,44,35.75V8.249C44,5.978,43.193,4.034,41.58,2.42L41.58,2.42z
		 M37.44,22.631h-5.013V40.82h-7.506V22.631H21.17v-6.275h3.751v-3.753c0-2.692,0.631-4.726,1.892-6.101
		c1.26-1.375,3.34-2.062,6.244-2.062h5.013v6.273h-3.151c-1.069,0-1.752,0.187-2.047,0.56c-0.297,0.372-0.445,1.024-0.445,1.962
		v3.121h5.672L37.44,22.631z M37.44,22.631"/>
</g>
<g>
</g>
<g>
</g>
<g>
</g>
<g>
</g>
<g>
</g>
<g>
</g>
</svg>
