<?xml version="1.0" encoding="utf-8"?>
<!-- Generator: Adobe Illustrator 16.0.4, SVG Export Plug-In . SVG Version: 6.00 Build 0)  -->
<!DOCTYPE svg PUBLIC "-//W3C//DTD SVG 1.1//EN" "http://www.w3.org/Graphics/SVG/1.1/DTD/svg11.dtd">
<svg version="1.1" id="Layer_1" xmlns="http://www.w3.org/2000/svg" xmlns:xlink="http://www.w3.org/1999/xlink" x="0px" y="0px"
	 width="44px" height="44px" viewBox="0 0 44 44" enable-background="new 0 0 44 44" xml:space="preserve">
<g>
	<path fill="#347277" d="M41.58,2.42C39.966,0.808,38.022,0,35.751,0H8.25C5.979,0,4.035,0.808,2.42,2.42
		C0.807,4.034,0,5.978,0,8.249V35.75c0,2.271,0.807,4.215,2.42,5.829C4.035,43.194,5.979,44,8.25,44h27.501
		c2.271,0,4.215-0.806,5.829-2.42S44,38.021,44,35.75V8.249C44,5.978,43.193,4.034,41.58,2.42L41.58,2.42z M33.66,16.929
		c0.019,0.172,0.027,0.429,0.027,0.774c0,1.604-0.233,3.213-0.7,4.826c-0.469,1.614-1.185,3.161-2.149,4.643
		c-0.963,1.48-2.115,2.788-3.451,3.923c-1.337,1.137-2.94,2.044-4.812,2.721c-1.872,0.68-3.878,1.018-6.016,1.018
		c-3.324,0-6.398-0.898-9.224-2.693c0.458,0.058,0.935,0.087,1.431,0.087c2.77,0,5.263-0.86,7.477-2.579
		c-1.298-0.019-2.458-0.421-3.479-1.204s-1.732-1.777-2.134-2.979c0.496,0.076,0.869,0.114,1.118,0.114
		c0.419,0,0.906-0.076,1.459-0.229c-1.394-0.268-2.568-0.959-3.523-2.077S8.25,20.883,8.25,19.451v-0.059
		c1.012,0.478,1.966,0.727,2.864,0.746c-1.737-1.166-2.606-2.836-2.606-5.013c0-1.07,0.276-2.081,0.831-3.037
		c1.508,1.854,3.343,3.333,5.5,4.441c2.158,1.107,4.469,1.727,6.932,1.861c-0.095-0.362-0.143-0.821-0.143-1.375
		c0-1.663,0.587-3.078,1.761-4.254C24.564,11.587,25.982,11,27.644,11c1.756,0,3.217,0.631,4.383,1.892
		c1.317-0.249,2.598-0.736,3.839-1.461c-0.477,1.47-1.366,2.587-2.665,3.351c1.242-0.174,2.396-0.498,3.466-0.975
		C35.866,15.029,34.862,16.071,33.66,16.929L33.66,16.929z M33.66,16.929"/>
</g>
<g>
</g>
<g>
</g>
<g>
</g>
<g>
</g>
<g>
</g>
<g>
</g>
</svg>
