<?xml version="1.0" encoding="utf-8"?>
<!-- Generator: Adobe Illustrator 16.0.4, SVG Export Plug-In . SVG Version: 6.00 Build 0)  -->
<!DOCTYPE svg PUBLIC "-//W3C//DTD SVG 1.1//EN" "http://www.w3.org/Graphics/SVG/1.1/DTD/svg11.dtd">
<svg version="1.1" id="Layer_1" xmlns="http://www.w3.org/2000/svg" xmlns:xlink="http://www.w3.org/1999/xlink" x="0px" y="0px"
	 width="200px" height="213.296px" viewBox="0 0 200 213.296" enable-background="new 0 0 200 213.296" xml:space="preserve">
<path fill="#FFFFFF" d="M25,0v148h22V95.362c-3-1.101-4.396-3.662-4.396-6.648c0-2.985,1.396-5.547,4.396-6.647V36.111
	c-3-1.101-4.502-3.638-4.502-6.623c0-3.989,3.182-7.067,7.171-7.067c2.986,0,5.494,1.579,6.595,4.579h85.395
	c1.101-3,3.668-4.579,6.654-4.579c3.989,0,7.15,3.119,7.15,7.108c0,2.985-1.463,5.481-4.463,6.582v45.956
	c3,1.101,4.396,3.663,4.396,6.647c0,2.986-1.396,5.548-4.396,6.648V121H80.919c-1.101,3-3.657,4.471-6.643,4.471
	c-3.989,0-7.45-3.244-7.45-7.233c0-2.985,2.174-5.463,4.174-6.564V65.719c-2-1.101-4.174-3.713-4.174-6.699
	c0-3.989,3.339-7.294,7.328-7.294c2.986,0,5.664,1.274,6.764,4.274h36.085c1.101-3,3.662-4.274,6.647-4.274
	c3.99,0,6.984,3.346,6.984,7.334c0,2.986-1.636,5.558-4.636,6.659v16.347c3,1.101,4.636,3.656,4.636,6.642
	c0,3.989-3.114,7.459-7.104,7.459c-2.985,0-5.427-2.167-6.528-4.167H96v-6h21.004c0.731-2,1.996-3.203,3.996-3.934V65.719
	c-2-0.731-3.266-1.719-3.996-3.719H80.919C80.188,64,79,64.989,77,65.719v45.954c2,0.731,3.188,2.327,3.918,4.327H146V95.363
	c-3-1.101-4.396-3.663-4.396-6.649c0-2.985,1.396-5.547,4.396-6.647V36.111c-2-0.73-3.611-2.111-4.341-4.111H56.264
	C55.533,34,54,35.381,52,36.111v45.955c3,1.101,4.396,3.663,4.396,6.647c0,2.986-1.396,5.548-4.396,6.648V148h121V0H25z"/>
<g>
	<path fill="#FFFFFF" d="M24.976,173.643c-1.189-1.03-2.586-1.598-4.191-2.094C19.18,171.054,17.426,171,15.523,171H0v41h5v-16
		h9.691c2.061,0,3.963-0.338,5.708-0.894c1.744-0.554,3.229-1.406,4.458-2.497c1.228-1.09,2.189-2.454,2.883-4.059
		c0.693-1.605,1.041-3.446,1.041-5.507c0-2.1-0.337-3.936-1.011-5.502C27.096,175.975,26.165,174.674,24.976,173.643z M14.75,192H5
		v-17h10.345c2.854,0,5.033,0.64,6.54,2.086c1.505,1.448,2.259,3.647,2.259,6.342C24.144,189.057,21.012,192,14.75,192z"/>
	<path fill="#FFFFFF" d="M72.358,190.229c1.784-1.981,2.675-4.597,2.675-7.848c0-2.021-0.337-3.765-1.011-5.232
		c-0.674-1.465-1.585-2.684-2.735-3.656c-1.15-0.97-2.517-1.5-4.102-1.975C65.6,171.044,63.896,171,62.073,171H46v41h4v-18h10.111
		l8.918,18h5.351l-9.156-17.96C68.196,193.407,70.574,192.211,72.358,190.229z M68.167,188.22C66.68,189.503,64.392,190,61.3,190H50
		v-15h11.895c2.774,0,4.884,0.559,6.332,1.841c1.446,1.283,2.17,3.094,2.17,5.66C70.396,185.107,69.653,186.937,68.167,188.22z"/>
	<path fill="#FFFFFF" d="M139.214,195.715c-0.238,0.595-0.507,1.172-0.804,1.925c-0.298,0.753-0.585,1.457-0.863,2.21
		c-0.278,0.753-0.537,1.442-0.774,2.116c-0.238,0.675-0.417,1.217-0.536,1.653c-0.12-0.436-0.298-0.987-0.536-1.641
		c-0.239-0.655-0.497-1.361-0.775-2.114c-0.278-0.752-0.566-1.508-0.863-2.261c-0.298-0.752-0.565-1.252-0.803-1.887L123.434,171
		H118v41h5v-27.953v-4.459c0,0.397,0.152,0.882,0.33,1.456c0.178,0.576,0.318,1.17,0.536,1.784c0.218,0.616,0.417,1.248,0.654,1.903
		c0.237,0.654,0.459,1.239,0.698,1.753l10.907,26.812l11.089-26.812c0.237-0.554,0.473-1.149,0.71-1.784
		c0.237-0.633,0.473-1.257,0.71-1.873c0.237-0.614,0.593-1.208,0.771-1.784c0.178-0.574,0.594-1.059,0.594-1.456v4.459V212h4v-41
		h-4.841L139.214,195.715z"/>
	<polygon fill="#FFFFFF" points="178,208 178,192 191,192 191,188 178,188 178,175 199,175 199,171 174,171 174,212 200,212 
		200,208 	"/>
	<path fill="#FFFFFF" d="M95.929,169.392c-3.181,0-5.491,2.579-5.491,5.761c0,2.296,1.562,4.274,3.562,5.199V212h4v-31.514
		c2-0.857,3.639-2.921,3.639-5.333C101.639,171.97,99.11,169.392,95.929,169.392z"/>
</g>
<g>
</g>
<g>
</g>
<g>
</g>
<g>
</g>
<g>
</g>
<g>
</g>
<g>
</g>
<g>
</g>
<g>
</g>
<g>
</g>
<g>
</g>
<g>
</g>
<g>
</g>
<g>
</g>
<g>
</g>
</svg>
