<?xml version="1.0" encoding="utf-8"?>
<!-- Generator: Adobe Illustrator 16.0.4, SVG Export Plug-In . SVG Version: 6.00 Build 0)  -->
<!DOCTYPE svg PUBLIC "-//W3C//DTD SVG 1.1//EN" "http://www.w3.org/Graphics/SVG/1.1/DTD/svg11.dtd">
<svg version="1.1" id="Layer_1" xmlns="http://www.w3.org/2000/svg" xmlns:xlink="http://www.w3.org/1999/xlink" x="0px" y="0px"
	 width="36px" height="36px" viewBox="0 0 36 36" enable-background="new 0 0 36 36" xml:space="preserve">
<g>
	<path fill="#FFFFFF" d="M0,0v36h5.329V23.277c-0.63-0.268-1.072-0.893-1.072-1.62s0.441-1.352,1.072-1.62V8.836
		c-0.63-0.269-1.072-0.893-1.072-1.621c0-0.972,0.789-1.76,1.761-1.76c0.728,0,1.352,0.442,1.62,1.072h20.814
		c0.268-0.63,0.893-1.072,1.62-1.072c0.972,0,1.76,0.789,1.76,1.76c0,0.728-0.441,1.352-1.071,1.621v11.201
		c0.63,0.269,1.071,0.893,1.071,1.62s-0.441,1.353-1.071,1.62v6.285H13.647c-0.268,0.63-0.893,1.071-1.62,1.071
		c-0.973,0-1.761-0.788-1.761-1.761c0-0.727,0.441-1.352,1.071-1.62v-11.2c-0.63-0.269-1.071-0.893-1.071-1.62
		c0-0.973,0.788-1.761,1.761-1.761c0.728,0,1.352,0.442,1.62,1.072h8.795c0.269-0.63,0.894-1.072,1.621-1.072
		c0.972,0,1.76,0.789,1.76,1.761c0,0.728-0.441,1.352-1.071,1.62v3.984c0.63,0.269,1.071,0.893,1.071,1.62
		c0,0.972-0.788,1.761-1.76,1.761c-0.728,0-1.353-0.442-1.621-1.071h-5.086v-1.378h5.086c0.179-0.418,0.513-0.754,0.931-0.932
		v-3.984c-0.418-0.178-0.752-0.513-0.931-0.931h-8.795c-0.178,0.418-0.513,0.753-0.931,0.931v11.2
		c0.418,0.179,0.753,0.514,0.931,0.931h15.735v-4.906c-0.63-0.268-1.072-0.893-1.072-1.62s0.442-1.352,1.072-1.62V8.836
		c-0.419-0.178-0.753-0.513-0.931-0.931H7.638C7.46,8.323,7.125,8.659,6.708,8.836v11.201c0.629,0.269,1.071,0.893,1.071,1.62
		s-0.442,1.353-1.071,1.62V36H36V0H0z"/>
</g>
<g>
</g>
<g>
</g>
<g>
</g>
<g>
</g>
<g>
</g>
<g>
</g>
</svg>
