<?xml version="1.0" encoding="UTF-8" standalone="no"?>
<!DOCTYPE svg PUBLIC "-//W3C//DTD SVG 1.1//EN"
 "http://www.w3.org/Graphics/SVG/1.1/DTD/svg11.dtd">
<!-- Generated by graphviz version 2.38.0 (20140413.2041)
 -->
<!-- Title: controllers_diagram Pages: 1 -->
<svg width="876pt" height="805pt"
 viewBox="0.00 0.00 875.53 805.00" xmlns="http://www.w3.org/2000/svg" xmlns:xlink="http://www.w3.org/1999/xlink">
<g id="graph0" class="graph" transform="scale(1 1) rotate(0) translate(363.821 441.5)">
<title>controllers_diagram</title>
<polygon fill="none" stroke="none" points="-363.821,363.5 -363.821,-441.5 511.714,-441.5 511.714,363.5 -363.821,363.5"/>
<!-- _diagram_info -->
<g id="node1" class="node"><title>_diagram_info</title>
<text text-anchor="start" x="-99.6877" y="156.9" font-family="Times,serif" font-size="13.00">Controllers diagram</text>
<text text-anchor="start" x="-99.6877" y="169.9" font-family="Times,serif" font-size="13.00">Date: Sep 08 2015 &#45; 14:50</text>
<text text-anchor="start" x="-99.6877" y="182.9" font-family="Times,serif" font-size="13.00">Migration version: 20150723200102</text>
<text text-anchor="start" x="-99.6877" y="195.9" font-family="Times,serif" font-size="13.00">Generated by RailRoady 1.3.1</text>
<text text-anchor="start" x="-99.6877" y="208.9" font-family="Times,serif" font-size="13.00">http://railroady.prestonlee.com</text>
</g>
<!-- AdminApplicationController -->
<g id="node2" class="node"><title>AdminApplicationController</title>
<path fill="none" stroke="black" d="M11.7344,359C11.7344,359 166.266,359 166.266,359 172.266,359 178.266,353 178.266,347 178.266,347 178.266,269 178.266,269 178.266,263 172.266,257 166.266,257 166.266,257 11.7344,257 11.7344,257 5.73438,257 -0.265625,263 -0.265625,269 -0.265625,269 -0.265625,347 -0.265625,347 -0.265625,353 5.73438,359 11.7344,359"/>
<text text-anchor="middle" x="89" y="272.2" font-family="Times,serif" font-size="14.00">AdminApplicationController</text>
<polyline fill="none" stroke="black" points="-0.265625,279 178.266,279 "/>
<text text-anchor="start" x="7.73438" y="294.2" font-family="Times,serif" font-size="14.00">audited_user</text>
<text text-anchor="start" x="7.73438" y="308.2" font-family="Times,serif" font-size="14.00">set_display_page_header</text>
<polyline fill="none" stroke="black" points="-0.265625,315 178.266,315 "/>
<text text-anchor="start" x="7.73438" y="330.2" font-family="Times,serif" font-size="14.00">layout_by_resource</text>
<polyline fill="none" stroke="black" points="-0.265625,337 178.266,337 "/>
<text text-anchor="start" x="7.73438" y="352.2" font-family="Times,serif" font-size="14.00">_layout</text>
</g>
<!-- AdminsController -->
<g id="node3" class="node"><title>AdminsController</title>
<path fill="none" stroke="black" d="M-239.941,17C-239.941,17 -146.059,17 -146.059,17 -140.059,17 -134.059,11 -134.059,5 -134.059,5 -134.059,-187 -134.059,-187 -134.059,-193 -140.059,-199 -146.059,-199 -146.059,-199 -239.941,-199 -239.941,-199 -245.941,-199 -251.941,-193 -251.941,-187 -251.941,-187 -251.941,5 -251.941,5 -251.941,11 -245.941,17 -239.941,17"/>
<text text-anchor="middle" x="-193" y="-183.8" font-family="Times,serif" font-size="14.00">AdminsController</text>
<polyline fill="none" stroke="black" points="-251.941,-177 -134.059,-177 "/>
<text text-anchor="start" x="-243.941" y="-161.8" font-family="Times,serif" font-size="14.00">create</text>
<text text-anchor="start" x="-243.941" y="-147.8" font-family="Times,serif" font-size="14.00">edit</text>
<text text-anchor="start" x="-243.941" y="-133.8" font-family="Times,serif" font-size="14.00">edit_password</text>
<text text-anchor="start" x="-243.941" y="-119.8" font-family="Times,serif" font-size="14.00">index</text>
<text text-anchor="start" x="-243.941" y="-105.8" font-family="Times,serif" font-size="14.00">new</text>
<text text-anchor="start" x="-243.941" y="-91.8" font-family="Times,serif" font-size="14.00">show</text>
<text text-anchor="start" x="-243.941" y="-77.8" font-family="Times,serif" font-size="14.00">update</text>
<text text-anchor="start" x="-243.941" y="-63.8" font-family="Times,serif" font-size="14.00">update_password</text>
<polyline fill="none" stroke="black" points="-251.941,-57 -134.059,-57 "/>
<polyline fill="none" stroke="black" points="-251.941,-33 -134.059,-33 "/>
<text text-anchor="start" x="-243.941" y="-17.8" font-family="Times,serif" font-size="14.00">_layout</text>
<text text-anchor="start" x="-243.941" y="-3.8" font-family="Times,serif" font-size="14.00">admin_params</text>
<text text-anchor="start" x="-243.941" y="10.2" font-family="Times,serif" font-size="14.00">set_admin</text>
</g>
<!-- AdmissionApplicationsController -->
<g id="node4" class="node"><title>AdmissionApplicationsController</title>
<path fill="none" stroke="black" d="M-95.8828,107C-95.8828,107 85.8828,107 85.8828,107 91.8828,107 97.8828,101 97.8828,95 97.8828,95 97.8828,-97 97.8828,-97 97.8828,-103 91.8828,-109 85.8828,-109 85.8828,-109 -95.8828,-109 -95.8828,-109 -101.883,-109 -107.883,-103 -107.883,-97 -107.883,-97 -107.883,95 -107.883,95 -107.883,101 -101.883,107 -95.8828,107"/>
<text text-anchor="middle" x="-5" y="-93.8" font-family="Times,serif" font-size="14.00">AdmissionApplicationsController</text>
<polyline fill="none" stroke="black" points="-107.883,-87 97.8828,-87 "/>
<text text-anchor="start" x="-99.8828" y="-71.8" font-family="Times,serif" font-size="14.00">audit_log</text>
<text text-anchor="start" x="-99.8828" y="-57.8" font-family="Times,serif" font-size="14.00">destroy</text>
<text text-anchor="start" x="-99.8828" y="-43.8" font-family="Times,serif" font-size="14.00">edit</text>
<text text-anchor="start" x="-99.8828" y="-29.8" font-family="Times,serif" font-size="14.00">index</text>
<text text-anchor="start" x="-99.8828" y="-15.8" font-family="Times,serif" font-size="14.00">show</text>
<text text-anchor="start" x="-99.8828" y="-1.8" font-family="Times,serif" font-size="14.00">update</text>
<text text-anchor="start" x="-99.8828" y="12.2" font-family="Times,serif" font-size="14.00">workflow</text>
<polyline fill="none" stroke="black" points="-107.883,19 97.8828,19 "/>
<polyline fill="none" stroke="black" points="-107.883,43 97.8828,43 "/>
<text text-anchor="start" x="-99.8828" y="58.2" font-family="Times,serif" font-size="14.00">_layout</text>
<text text-anchor="start" x="-99.8828" y="72.2" font-family="Times,serif" font-size="14.00">admission_application_params</text>
<text text-anchor="start" x="-99.8828" y="86.2" font-family="Times,serif" font-size="14.00">set_admission_application</text>
<text text-anchor="start" x="-99.8828" y="100.2" font-family="Times,serif" font-size="14.00">set_default_params</text>
</g>
<!-- ApplicationController -->
<g id="node5" class="node"><title>ApplicationController</title>
<path fill="none" stroke="black" d="M-347.821,359C-347.821,359 -232.179,359 -232.179,359 -226.179,359 -220.179,353 -220.179,347 -220.179,347 -220.179,283 -220.179,283 -220.179,277 -226.179,271 -232.179,271 -232.179,271 -347.821,271 -347.821,271 -353.821,271 -359.821,277 -359.821,283 -359.821,283 -359.821,347 -359.821,347 -359.821,353 -353.821,359 -347.821,359"/>
<text text-anchor="middle" x="-290" y="286.2" font-family="Times,serif" font-size="14.00">ApplicationController</text>
<polyline fill="none" stroke="black" points="-359.821,293 -220.179,293 "/>
<text text-anchor="start" x="-351.821" y="308.2" font-family="Times,serif" font-size="14.00">audited_user</text>
<polyline fill="none" stroke="black" points="-359.821,315 -220.179,315 "/>
<text text-anchor="start" x="-351.821" y="330.2" font-family="Times,serif" font-size="14.00">layout_by_resource</text>
<polyline fill="none" stroke="black" points="-359.821,337 -220.179,337 "/>
<text text-anchor="start" x="-351.821" y="352.2" font-family="Times,serif" font-size="14.00">_layout</text>
</g>
<!-- ApplyController -->
<g id="node6" class="node"><title>ApplyController</title>
<path fill="none" stroke="black" d="M300.296,287C300.296,287 465.704,287 465.704,287 471.704,287 477.704,281 477.704,275 477.704,275 477.704,139 477.704,139 477.704,133 471.704,127 465.704,127 465.704,127 300.296,127 300.296,127 294.296,127 288.296,133 288.296,139 288.296,139 288.296,275 288.296,275 288.296,281 294.296,287 300.296,287"/>
<text text-anchor="middle" x="383" y="142.2" font-family="Times,serif" font-size="14.00">ApplyController</text>
<polyline fill="none" stroke="black" points="288.296,149 477.704,149 "/>
<text text-anchor="start" x="296.296" y="164.2" font-family="Times,serif" font-size="14.00">show</text>
<text text-anchor="start" x="296.296" y="178.2" font-family="Times,serif" font-size="14.00">update</text>
<polyline fill="none" stroke="black" points="288.296,185 477.704,185 "/>
<polyline fill="none" stroke="black" points="288.296,209 477.704,209 "/>
<text text-anchor="start" x="296.296" y="224.2" font-family="Times,serif" font-size="14.00">_layout</text>
<text text-anchor="start" x="296.296" y="238.2" font-family="Times,serif" font-size="14.00">admission_application_params</text>
<text text-anchor="start" x="296.296" y="252.2" font-family="Times,serif" font-size="14.00">finish_wizard_path</text>
<text text-anchor="start" x="296.296" y="266.2" font-family="Times,serif" font-size="14.00">redirect_completed_applicants</text>
<text text-anchor="start" x="296.296" y="280.2" font-family="Times,serif" font-size="14.00">set_admission_application</text>
</g>
<!-- CohortsController -->
<g id="node7" class="node"><title>CohortsController</title>
<path fill="none" stroke="black" d="M137.624,125C137.624,125 242.376,125 242.376,125 248.376,125 254.376,119 254.376,113 254.376,113 254.376,-121 254.376,-121 254.376,-127 248.376,-133 242.376,-133 242.376,-133 137.624,-133 137.624,-133 131.624,-133 125.624,-127 125.624,-121 125.624,-121 125.624,113 125.624,113 125.624,119 131.624,125 137.624,125"/>
<text text-anchor="middle" x="190" y="-117.8" font-family="Times,serif" font-size="14.00">CohortsController</text>
<polyline fill="none" stroke="black" points="125.624,-111 254.376,-111 "/>
<text text-anchor="start" x="133.624" y="-95.8" font-family="Times,serif" font-size="14.00">chart</text>
<text text-anchor="start" x="133.624" y="-81.8" font-family="Times,serif" font-size="14.00">create</text>
<text text-anchor="start" x="133.624" y="-67.8" font-family="Times,serif" font-size="14.00">destroy</text>
<text text-anchor="start" x="133.624" y="-53.8" font-family="Times,serif" font-size="14.00">edit</text>
<text text-anchor="start" x="133.624" y="-39.8" font-family="Times,serif" font-size="14.00">index</text>
<text text-anchor="start" x="133.624" y="-25.8" font-family="Times,serif" font-size="14.00">new</text>
<text text-anchor="start" x="133.624" y="-11.8" font-family="Times,serif" font-size="14.00">show</text>
<text text-anchor="start" x="133.624" y="2.2" font-family="Times,serif" font-size="14.00">update</text>
<polyline fill="none" stroke="black" points="125.624,9 254.376,9 "/>
<polyline fill="none" stroke="black" points="125.624,33 254.376,33 "/>
<text text-anchor="start" x="133.624" y="48.2" font-family="Times,serif" font-size="14.00">_layout</text>
<text text-anchor="start" x="133.624" y="62.2" font-family="Times,serif" font-size="14.00">cohort_params</text>
<text text-anchor="start" x="133.624" y="76.2" font-family="Times,serif" font-size="14.00">group_apps_by_age</text>
<text text-anchor="start" x="133.624" y="90.2" font-family="Times,serif" font-size="14.00">set_cohort</text>
<text text-anchor="start" x="133.624" y="104.2" font-family="Times,serif" font-size="14.00">set_courses</text>
<text text-anchor="start" x="133.624" y="118.2" font-family="Times,serif" font-size="14.00">set_default_params</text>
</g>
<!-- CommentsController -->
<g id="node8" class="node"><title>CommentsController</title>
<path fill="none" stroke="black" d="M-258.107,233C-258.107,233 -147.893,233 -147.893,233 -141.893,233 -135.893,227 -135.893,221 -135.893,221 -135.893,57 -135.893,57 -135.893,51 -141.893,45 -147.893,45 -147.893,45 -258.107,45 -258.107,45 -264.107,45 -270.107,51 -270.107,57 -270.107,57 -270.107,221 -270.107,221 -270.107,227 -264.107,233 -258.107,233"/>
<text text-anchor="middle" x="-203" y="60.2" font-family="Times,serif" font-size="14.00">CommentsController</text>
<polyline fill="none" stroke="black" points="-270.107,67 -135.893,67 "/>
<text text-anchor="start" x="-262.107" y="82.2" font-family="Times,serif" font-size="14.00">create</text>
<text text-anchor="start" x="-262.107" y="96.2" font-family="Times,serif" font-size="14.00">destroy</text>
<text text-anchor="start" x="-262.107" y="110.2" font-family="Times,serif" font-size="14.00">edit</text>
<text text-anchor="start" x="-262.107" y="124.2" font-family="Times,serif" font-size="14.00">new</text>
<text text-anchor="start" x="-262.107" y="138.2" font-family="Times,serif" font-size="14.00">update</text>
<polyline fill="none" stroke="black" points="-270.107,145 -135.893,145 "/>
<polyline fill="none" stroke="black" points="-270.107,169 -135.893,169 "/>
<text text-anchor="start" x="-262.107" y="184.2" font-family="Times,serif" font-size="14.00">_layout</text>
<text text-anchor="start" x="-262.107" y="198.2" font-family="Times,serif" font-size="14.00">comment_params</text>
<text text-anchor="start" x="-262.107" y="212.2" font-family="Times,serif" font-size="14.00">context</text>
<text text-anchor="start" x="-262.107" y="226.2" font-family="Times,serif" font-size="14.00">context_url</text>
</g>
<!-- CoursesController -->
<g id="node9" class="node"><title>CoursesController</title>
<path fill="none" stroke="black" d="M-222.328,-235C-222.328,-235 -127.672,-235 -127.672,-235 -121.672,-235 -115.672,-241 -115.672,-247 -115.672,-247 -115.672,-425 -115.672,-425 -115.672,-431 -121.672,-437 -127.672,-437 -127.672,-437 -222.328,-437 -222.328,-437 -228.328,-437 -234.328,-431 -234.328,-425 -234.328,-425 -234.328,-247 -234.328,-247 -234.328,-241 -228.328,-235 -222.328,-235"/>
<text text-anchor="middle" x="-175" y="-421.8" font-family="Times,serif" font-size="14.00">CoursesController</text>
<polyline fill="none" stroke="black" points="-234.328,-415 -115.672,-415 "/>
<text text-anchor="start" x="-226.328" y="-399.8" font-family="Times,serif" font-size="14.00">create</text>
<text text-anchor="start" x="-226.328" y="-385.8" font-family="Times,serif" font-size="14.00">destroy</text>
<text text-anchor="start" x="-226.328" y="-371.8" font-family="Times,serif" font-size="14.00">edit</text>
<text text-anchor="start" x="-226.328" y="-357.8" font-family="Times,serif" font-size="14.00">index</text>
<text text-anchor="start" x="-226.328" y="-343.8" font-family="Times,serif" font-size="14.00">new</text>
<text text-anchor="start" x="-226.328" y="-329.8" font-family="Times,serif" font-size="14.00">show</text>
<text text-anchor="start" x="-226.328" y="-315.8" font-family="Times,serif" font-size="14.00">update</text>
<polyline fill="none" stroke="black" points="-234.328,-309 -115.672,-309 "/>
<polyline fill="none" stroke="black" points="-234.328,-285 -115.672,-285 "/>
<text text-anchor="start" x="-226.328" y="-269.8" font-family="Times,serif" font-size="14.00">_layout</text>
<text text-anchor="start" x="-226.328" y="-255.8" font-family="Times,serif" font-size="14.00">course_params</text>
<text text-anchor="start" x="-226.328" y="-241.8" font-family="Times,serif" font-size="14.00">set_course</text>
</g>
<!-- DashboardController -->
<g id="node10" class="node"><title>DashboardController</title>
<path fill="none" stroke="black" d="M299.712,89C299.712,89 456.288,89 456.288,89 462.288,89 468.288,83 468.288,77 468.288,77 468.288,-59 468.288,-59 468.288,-65 462.288,-71 456.288,-71 456.288,-71 299.712,-71 299.712,-71 293.712,-71 287.712,-65 287.712,-59 287.712,-59 287.712,77 287.712,77 287.712,83 293.712,89 299.712,89"/>
<text text-anchor="middle" x="378" y="-55.8" font-family="Times,serif" font-size="14.00">DashboardController</text>
<polyline fill="none" stroke="black" points="287.712,-49 468.288,-49 "/>
<text text-anchor="start" x="295.712" y="-33.8" font-family="Times,serif" font-size="14.00">chart</text>
<text text-anchor="start" x="295.712" y="-19.8" font-family="Times,serif" font-size="14.00">index</text>
<text text-anchor="start" x="295.712" y="-5.8" font-family="Times,serif" font-size="14.00">set_display_page_header</text>
<polyline fill="none" stroke="black" points="287.712,1 468.288,1 "/>
<polyline fill="none" stroke="black" points="287.712,25 468.288,25 "/>
<text text-anchor="start" x="295.712" y="40.2" font-family="Times,serif" font-size="14.00">_layout</text>
<text text-anchor="start" x="295.712" y="54.2" font-family="Times,serif" font-size="14.00">convert_to_area</text>
<text text-anchor="start" x="295.712" y="68.2" font-family="Times,serif" font-size="14.00">merge_started_and_complete</text>
<text text-anchor="start" x="295.712" y="82.2" font-family="Times,serif" font-size="14.00">set_apps_time_filter</text>
</g>
<!-- HomeController -->
<g id="node11" class="node"><title>HomeController</title>
<path fill="none" stroke="black" d="M-167.879,359C-167.879,359 -84.1206,359 -84.1206,359 -78.1206,359 -72.1206,353 -72.1206,347 -72.1206,347 -72.1206,281 -72.1206,281 -72.1206,275 -78.1206,269 -84.1206,269 -84.1206,269 -167.879,269 -167.879,269 -173.879,269 -179.879,275 -179.879,281 -179.879,281 -179.879,347 -179.879,347 -179.879,353 -173.879,359 -167.879,359"/>
<text text-anchor="middle" x="-126" y="284.2" font-family="Times,serif" font-size="14.00">HomeController</text>
<polyline fill="none" stroke="black" points="-179.879,291 -72.1206,291 "/>
<text text-anchor="start" x="-171.879" y="306.2" font-family="Times,serif" font-size="14.00">index</text>
<polyline fill="none" stroke="black" points="-179.879,313 -72.1206,313 "/>
<polyline fill="none" stroke="black" points="-179.879,337 -72.1206,337 "/>
<text text-anchor="start" x="-171.879" y="352.2" font-family="Times,serif" font-size="14.00">_layout</text>
</g>
<!-- LogicQuestionsController -->
<g id="node12" class="node"><title>LogicQuestionsController</title>
<path fill="none" stroke="black" d="M173.9,-163C173.9,-163 312.1,-163 312.1,-163 318.1,-163 324.1,-169 324.1,-175 324.1,-175 324.1,-353 324.1,-353 324.1,-359 318.1,-365 312.1,-365 312.1,-365 173.9,-365 173.9,-365 167.9,-365 161.9,-359 161.9,-353 161.9,-353 161.9,-175 161.9,-175 161.9,-169 167.9,-163 173.9,-163"/>
<text text-anchor="middle" x="243" y="-349.8" font-family="Times,serif" font-size="14.00">LogicQuestionsController</text>
<polyline fill="none" stroke="black" points="161.9,-343 324.1,-343 "/>
<text text-anchor="start" x="169.9" y="-327.8" font-family="Times,serif" font-size="14.00">create</text>
<text text-anchor="start" x="169.9" y="-313.8" font-family="Times,serif" font-size="14.00">destroy</text>
<text text-anchor="start" x="169.9" y="-299.8" font-family="Times,serif" font-size="14.00">edit</text>
<text text-anchor="start" x="169.9" y="-285.8" font-family="Times,serif" font-size="14.00">new</text>
<text text-anchor="start" x="169.9" y="-271.8" font-family="Times,serif" font-size="14.00">show</text>
<text text-anchor="start" x="169.9" y="-257.8" font-family="Times,serif" font-size="14.00">update</text>
<polyline fill="none" stroke="black" points="161.9,-251 324.1,-251 "/>
<polyline fill="none" stroke="black" points="161.9,-227 324.1,-227 "/>
<text text-anchor="start" x="169.9" y="-211.8" font-family="Times,serif" font-size="14.00">_layout</text>
<text text-anchor="start" x="169.9" y="-197.8" font-family="Times,serif" font-size="14.00">logic_question_params</text>
<text text-anchor="start" x="169.9" y="-183.8" font-family="Times,serif" font-size="14.00">set_course</text>
<text text-anchor="start" x="169.9" y="-169.8" font-family="Times,serif" font-size="14.00">set_logic_question</text>
</g>
<!-- ProfileQuestionsController -->
<g id="node13" class="node"><title>ProfileQuestionsController</title>
<path fill="none" stroke="black" d="M-60.4414,-145C-60.4414,-145 82.4414,-145 82.4414,-145 88.4414,-145 94.4414,-151 94.4414,-157 94.4414,-157 94.4414,-335 94.4414,-335 94.4414,-341 88.4414,-347 82.4414,-347 82.4414,-347 -60.4414,-347 -60.4414,-347 -66.4414,-347 -72.4414,-341 -72.4414,-335 -72.4414,-335 -72.4414,-157 -72.4414,-157 -72.4414,-151 -66.4414,-145 -60.4414,-145"/>
<text text-anchor="middle" x="11" y="-331.8" font-family="Times,serif" font-size="14.00">ProfileQuestionsController</text>
<polyline fill="none" stroke="black" points="-72.4414,-325 94.4414,-325 "/>
<text text-anchor="start" x="-64.4414" y="-309.8" font-family="Times,serif" font-size="14.00">create</text>
<text text-anchor="start" x="-64.4414" y="-295.8" font-family="Times,serif" font-size="14.00">destroy</text>
<text text-anchor="start" x="-64.4414" y="-281.8" font-family="Times,serif" font-size="14.00">edit</text>
<text text-anchor="start" x="-64.4414" y="-267.8" font-family="Times,serif" font-size="14.00">new</text>
<text text-anchor="start" x="-64.4414" y="-253.8" font-family="Times,serif" font-size="14.00">show</text>
<text text-anchor="start" x="-64.4414" y="-239.8" font-family="Times,serif" font-size="14.00">update</text>
<polyline fill="none" stroke="black" points="-72.4414,-233 94.4414,-233 "/>
<polyline fill="none" stroke="black" points="-72.4414,-209 94.4414,-209 "/>
<text text-anchor="start" x="-64.4414" y="-193.8" font-family="Times,serif" font-size="14.00">_layout</text>
<text text-anchor="start" x="-64.4414" y="-179.8" font-family="Times,serif" font-size="14.00">profile_question_params</text>
<text text-anchor="start" x="-64.4414" y="-165.8" font-family="Times,serif" font-size="14.00">set_course</text>
<text text-anchor="start" x="-64.4414" y="-151.8" font-family="Times,serif" font-size="14.00">set_profile_question</text>
</g>
<!-- RegistrationsController -->
<g id="node14" class="node"><title>RegistrationsController</title>
<path fill="none" stroke="black" d="M372.286,-109C372.286,-109 495.714,-109 495.714,-109 501.714,-109 507.714,-115 507.714,-121 507.714,-121 507.714,-187 507.714,-187 507.714,-193 501.714,-199 495.714,-199 495.714,-199 372.286,-199 372.286,-199 366.286,-199 360.286,-193 360.286,-187 360.286,-187 360.286,-121 360.286,-121 360.286,-115 366.286,-109 372.286,-109"/>
<text text-anchor="middle" x="434" y="-183.8" font-family="Times,serif" font-size="14.00">RegistrationsController</text>
<polyline fill="none" stroke="black" points="360.286,-177 507.714,-177 "/>
<text text-anchor="start" x="368.286" y="-161.8" font-family="Times,serif" font-size="14.00">create</text>
<polyline fill="none" stroke="black" points="360.286,-155 507.714,-155 "/>
<polyline fill="none" stroke="black" points="360.286,-131 507.714,-131 "/>
<text text-anchor="start" x="368.286" y="-115.8" font-family="Times,serif" font-size="14.00">_layout</text>
</g>
<!-- TestingController -->
<g id="node15" class="node"><title>TestingController</title>
<path fill="none" stroke="black" d="M371.72,-235C371.72,-235 462.28,-235 462.28,-235 468.28,-235 474.28,-241 474.28,-247 474.28,-247 474.28,-341 474.28,-341 474.28,-347 468.28,-353 462.28,-353 462.28,-353 371.72,-353 371.72,-353 365.72,-353 359.72,-347 359.72,-341 359.72,-341 359.72,-247 359.72,-247 359.72,-241 365.72,-235 371.72,-235"/>
<text text-anchor="middle" x="417" y="-337.8" font-family="Times,serif" font-size="14.00">TestingController</text>
<polyline fill="none" stroke="black" points="359.72,-331 474.28,-331 "/>
<text text-anchor="start" x="367.72" y="-315.8" font-family="Times,serif" font-size="14.00">email</text>
<text text-anchor="start" x="367.72" y="-301.8" font-family="Times,serif" font-size="14.00">ping</text>
<text text-anchor="start" x="367.72" y="-287.8" font-family="Times,serif" font-size="14.00">timeout</text>
<polyline fill="none" stroke="black" points="359.72,-281 474.28,-281 "/>
<polyline fill="none" stroke="black" points="359.72,-257 474.28,-257 "/>
<text text-anchor="start" x="367.72" y="-241.8" font-family="Times,serif" font-size="14.00">_layout</text>
</g>
</g>
</svg>
