<?xml version="1.0" encoding="UTF-8" standalone="no"?>
<!DOCTYPE svg PUBLIC "-//W3C//DTD SVG 1.1//EN"
 "http://www.w3.org/Graphics/SVG/1.1/DTD/svg11.dtd">
<!-- Generated by graphviz version 2.38.0 (20140413.2041)
 -->
<!-- Title: models_diagram Pages: 1 -->
<svg width="915pt" height="240pt"
 viewBox="0.00 0.00 915.12 240.00" xmlns="http://www.w3.org/2000/svg" xmlns:xlink="http://www.w3.org/1999/xlink">
<g id="graph0" class="graph" transform="scale(1 1) rotate(0) translate(4 236)">
<title>models_diagram</title>
<polygon fill="none" stroke="none" points="-4,4 -4,-236 911.119,-236 911.119,4 -4,4"/>
<!-- _diagram_info -->
<g id="node1" class="node"><title>_diagram_info</title>
<text text-anchor="start" x="257.301" y="-217.6" font-family="Times,serif" font-size="13.00">Models diagram</text>
<text text-anchor="start" x="257.301" y="-204.6" font-family="Times,serif" font-size="13.00">Date: Sep 08 2015 &#45; 14:50</text>
<text text-anchor="start" x="257.301" y="-191.6" font-family="Times,serif" font-size="13.00">Migration version: 20150723200102</text>
<text text-anchor="start" x="257.301" y="-178.6" font-family="Times,serif" font-size="13.00">Generated by RailRoady 1.3.1</text>
<text text-anchor="start" x="257.301" y="-165.6" font-family="Times,serif" font-size="13.00">http://railroady.prestonlee.com</text>
</g>
<!-- Admin -->
<g id="node2" class="node"><title>Admin</title>
<ellipse fill="none" stroke="black" cx="44.9884" cy="-104" rx="34.8458" ry="18"/>
<text text-anchor="middle" x="44.9884" y="-99.8" font-family="Times,serif" font-size="14.00">Admin</text>
</g>
<!-- Comment -->
<g id="node5" class="node"><title>Comment</title>
<ellipse fill="none" stroke="black" cx="44.9884" cy="-18" rx="44.9768" ry="18"/>
<text text-anchor="middle" x="44.9884" y="-13.8" font-family="Times,serif" font-size="14.00">Comment</text>
</g>
<!-- Admin&#45;&gt;Comment -->
<g id="edge1" class="edge"><title>Admin&#45;&gt;Comment</title>
<path fill="none" stroke="#438dd1" d="M44.9884,-77.2567C44.9884,-67.4415 44.9884,-56.2256 44.9884,-46.2729"/>
<ellipse fill="none" stroke="#438dd1" cx="44.9885" cy="-81.5951" rx="4" ry="4"/>
<polygon fill="#438dd1" stroke="#438dd1" points="44.9885,-46.0952 49.4884,-36.0951 44.9885,-41.0952 44.9884,-36.0952 44.9884,-36.0952 44.9884,-36.0952 44.9885,-41.0952 40.4884,-36.0952 44.9885,-46.0952 44.9885,-46.0952"/>
</g>
<!-- AdmissionApplication -->
<g id="node3" class="node"><title>AdmissionApplication</title>
<ellipse fill="none" stroke="black" cx="501.988" cy="-104" rx="90.3723" ry="18"/>
<text text-anchor="middle" x="501.988" y="-99.8" font-family="Times,serif" font-size="14.00">AdmissionApplication</text>
</g>
<!-- Cohort -->
<g id="node4" class="node"><title>Cohort</title>
<ellipse fill="none" stroke="black" cx="340.988" cy="-18" rx="34.8458" ry="18"/>
<text text-anchor="middle" x="340.988" y="-13.8" font-family="Times,serif" font-size="14.00">Cohort</text>
</g>
<!-- AdmissionApplication&#45;&gt;Cohort -->
<g id="edge4" class="edge"><title>AdmissionApplication&#45;&gt;Cohort</title>
<path fill="none" stroke="#120771" d="M505.756,-75.8236C505.398,-67.9076 503.396,-59.8305 497.988,-54 480.547,-35.1962 408.73,-42.7555 383.988,-36 381.392,-35.291 378.738,-34.4761 376.086,-33.5951"/>
<polygon fill="#120771" stroke="#120771" points="505.752,-75.9399 500.931,-85.7889 505.59,-80.9373 505.428,-85.9347 505.428,-85.9347 505.428,-85.9347 505.59,-80.9373 509.926,-86.0804 505.752,-75.9399 505.752,-75.9399"/>
<polygon fill="#120771" stroke="#120771" points="376.009,-33.5676 368.119,-25.9521 371.303,-31.8774 366.597,-30.1872 366.597,-30.1872 366.597,-30.1872 371.303,-31.8774 365.076,-34.4224 376.009,-33.5676 376.009,-33.5676"/>
</g>
<!-- AdmissionApplication&#45;&gt;Comment -->
<g id="edge3" class="edge"><title>AdmissionApplication&#45;&gt;Comment</title>
<path fill="none" stroke="#0450b1" d="M417.507,-93.1889C335.366,-82.6593 207.466,-63.6322 98.9884,-36 95.4465,-35.0978 91.7941,-34.099 88.1381,-33.0506"/>
<ellipse fill="none" stroke="#0450b1" cx="421.838" cy="-93.7392" rx="4.00001" ry="4.00001"/>
<polygon fill="#0450b1" stroke="#0450b1" points="88.1107,-33.0425 79.808,-25.879 83.318,-31.6175 78.5254,-30.1924 78.5254,-30.1924 78.5254,-30.1924 83.318,-31.6175 77.2429,-34.5057 88.1107,-33.0425 88.1107,-33.0425"/>
</g>
<!-- LogicQuestionAnswer -->
<g id="node8" class="node"><title>LogicQuestionAnswer</title>
<ellipse fill="none" stroke="black" cx="197.988" cy="-18" rx="90.3463" ry="18"/>
<text text-anchor="middle" x="197.988" y="-13.8" font-family="Times,serif" font-size="14.00">LogicQuestionAnswer</text>
</g>
<!-- AdmissionApplication&#45;&gt;LogicQuestionAnswer -->
<g id="edge5" class="edge"><title>AdmissionApplication&#45;&gt;LogicQuestionAnswer</title>
<path fill="none" stroke="#3211b2" d="M416.376,-93.5008C379.946,-88.0972 337.334,-79.9505 299.988,-68 277.637,-60.8477 253.937,-49.7015 235.012,-39.8458"/>
<ellipse fill="none" stroke="#3211b2" cx="420.572" cy="-94.1076" rx="4.00001" ry="4.00001"/>
<polygon fill="#3211b2" stroke="#3211b2" points="234.966,-39.8214 228.242,-31.1592 230.55,-37.4779 226.133,-35.1343 226.133,-35.1343 226.133,-35.1343 230.55,-37.4779 224.024,-39.1095 234.966,-39.8214 234.966,-39.8214"/>
</g>
<!-- ProfileQuestionAnswer -->
<g id="node10" class="node"><title>ProfileQuestionAnswer</title>
<ellipse fill="none" stroke="black" cx="813.988" cy="-18" rx="93.262" ry="18"/>
<text text-anchor="middle" x="813.988" y="-13.8" font-family="Times,serif" font-size="14.00">ProfileQuestionAnswer</text>
</g>
<!-- AdmissionApplication&#45;&gt;ProfileQuestionAnswer -->
<g id="edge6" class="edge"><title>AdmissionApplication&#45;&gt;ProfileQuestionAnswer</title>
<path fill="none" stroke="#aa3e16" d="M561.495,-86.9789C616.233,-72.2419 697.07,-50.4779 752.444,-35.5697"/>
<ellipse fill="none" stroke="#aa3e16" cx="557.371" cy="-88.0892" rx="4.00001" ry="4.00001"/>
<polygon fill="#aa3e16" stroke="#aa3e16" points="752.475,-35.5613 763.301,-37.3068 757.303,-34.2614 762.131,-32.9615 762.131,-32.9615 762.131,-32.9615 757.303,-34.2614 760.962,-28.6162 752.475,-35.5613 752.475,-35.5613"/>
</g>
<!-- Audited::Adapters::ActiveRecord::Audit -->
<g id="node12" class="node"><title>Audited::Adapters::ActiveRecord::Audit</title>
<ellipse fill="none" stroke="black" cx="547.988" cy="-18" rx="154.534" ry="18"/>
<text text-anchor="middle" x="547.988" y="-13.8" font-family="Times,serif" font-size="14.00">Audited::Adapters::ActiveRecord::Audit</text>
</g>
<!-- AdmissionApplication&#45;&gt;Audited::Adapters::ActiveRecord::Audit -->
<g id="edge2" class="edge"><title>AdmissionApplication&#45;&gt;Audited::Adapters::ActiveRecord::Audit</title>
<path fill="none" stroke="#0cbfe0" d="M518.373,-79.043C520.68,-75.3951 522.955,-71.6347 524.988,-68 528.963,-60.8958 532.882,-52.989 536.327,-45.636"/>
<ellipse fill="none" stroke="#0cbfe0" cx="516.13" cy="-82.501" rx="4.00002" ry="4.00002"/>
<polygon fill="#0cbfe0" stroke="#0cbfe0" points="536.537,-45.1761 544.785,-37.9499 538.614,-40.6281 540.692,-36.0801 540.692,-36.0801 540.692,-36.0801 538.614,-40.6281 536.599,-34.2103 536.537,-45.1761 536.537,-45.1761"/>
<text text-anchor="middle" x="548.709" y="-56.8" font-family="Times,serif" font-size="14.00">audits</text>
</g>
<!-- Cohort&#45;&gt;AdmissionApplication -->
<g id="edge7" class="edge"><title>Cohort&#45;&gt;AdmissionApplication</title>
<path fill="none" stroke="#28f563" d="M315.1,-38.5146C305.938,-47.7516 299.618,-58.7569 307.347,-68 320.499,-83.7275 363.739,-92.3981 406.133,-97.1731"/>
<ellipse fill="none" stroke="#28f563" cx="318.127" cy="-35.7309" rx="4.00002" ry="4.00002"/>
<polygon fill="#28f563" stroke="#28f563" points="406.352,-97.1962 415.823,-102.723 411.325,-97.7221 416.297,-98.2481 416.297,-98.2481 416.297,-98.2481 411.325,-97.7221 416.77,-93.773 406.352,-97.1962 406.352,-97.1962"/>
<text text-anchor="middle" x="401.309" y="-56.8" font-family="Times,serif" font-size="14.00">assigned_admission_applications</text>
</g>
<!-- Course -->
<g id="node6" class="node"><title>Course</title>
<ellipse fill="none" stroke="black" cx="601.988" cy="-195.5" rx="35.3216" ry="18"/>
<text text-anchor="middle" x="601.988" y="-191.3" font-family="Times,serif" font-size="14.00">Course</text>
</g>
<!-- Course&#45;&gt;AdmissionApplication -->
<g id="edge8" class="edge"><title>Course&#45;&gt;AdmissionApplication</title>
<path fill="none" stroke="#572e49" d="M587.854,-170.991C580.913,-160.686 571.911,-148.932 561.988,-140 556.442,-135.008 550.072,-130.385 543.6,-126.243"/>
<ellipse fill="none" stroke="#572e49" cx="590.132" cy="-174.49" rx="4.00002" ry="4.00002"/>
<polygon fill="#572e49" stroke="#572e49" points="543.335,-126.083 537.109,-117.055 539.057,-123.494 534.78,-120.905 534.78,-120.905 534.78,-120.905 539.057,-123.494 532.45,-124.755 543.335,-126.083 543.335,-126.083"/>
</g>
<!-- Course&#45;&gt;Cohort -->
<g id="edge9" class="edge"><title>Course&#45;&gt;Cohort</title>
<path fill="none" stroke="#c1c5f9" d="M606.966,-169.42C610.288,-146.707 612.234,-112.8 600.988,-86 593.206,-67.4534 587.176,-62.5888 568.988,-54 494.289,-18.7236 464.295,-55.3751 383.988,-36 381.372,-35.3687 378.703,-34.6111 376.04,-33.7712"/>
<ellipse fill="none" stroke="#c1c5f9" cx="606.29" cy="-173.59" rx="4.00001" ry="4.00001"/>
<polygon fill="#c1c5f9" stroke="#c1c5f9" points="375.971,-33.7469 368.015,-26.1993 371.251,-32.0971 366.531,-30.4472 366.531,-30.4472 366.531,-30.4472 371.251,-32.0971 365.046,-34.6952 375.971,-33.7469 375.971,-33.7469"/>
</g>
<!-- LogicQuestion -->
<g id="node7" class="node"><title>LogicQuestion</title>
<ellipse fill="none" stroke="black" cx="264.988" cy="-104" rx="62.8339" ry="18"/>
<text text-anchor="middle" x="264.988" y="-99.8" font-family="Times,serif" font-size="14.00">LogicQuestion</text>
</g>
<!-- Course&#45;&gt;LogicQuestion -->
<g id="edge10" class="edge"><title>Course&#45;&gt;LogicQuestion</title>
<path fill="none" stroke="#99fd6f" d="M574.275,-176.653C563.331,-170.275 550.419,-163.55 537.988,-159 470.396,-134.261 389.02,-120.028 332.793,-112.451"/>
<ellipse fill="none" stroke="#99fd6f" cx="577.724" cy="-178.714" rx="4.00002" ry="4.00002"/>
<polygon fill="#99fd6f" stroke="#99fd6f" points="332.511,-112.414 323.182,-106.651 327.554,-111.763 322.596,-111.113 322.596,-111.113 322.596,-111.113 327.554,-111.763 322.011,-115.574 332.511,-112.414 332.511,-112.414"/>
</g>
<!-- ProfileQuestion -->
<g id="node9" class="node"><title>ProfileQuestion</title>
<ellipse fill="none" stroke="black" cx="778.988" cy="-104" rx="65.7495" ry="18"/>
<text text-anchor="middle" x="778.988" y="-99.8" font-family="Times,serif" font-size="14.00">ProfileQuestion</text>
</g>
<!-- Course&#45;&gt;ProfileQuestion -->
<g id="edge11" class="edge"><title>Course&#45;&gt;ProfileQuestion</title>
<path fill="none" stroke="#b6128f" d="M633.737,-178.446C663.53,-163.382 708.164,-140.812 740.085,-124.672"/>
<ellipse fill="none" stroke="#b6128f" cx="629.798" cy="-180.438" rx="4.00002" ry="4.00002"/>
<polygon fill="#b6128f" stroke="#b6128f" points="740.215,-124.606 751.17,-124.109 744.677,-122.349 749.14,-120.093 749.14,-120.093 749.14,-120.093 744.677,-122.349 747.109,-116.077 740.215,-124.606 740.215,-124.606"/>
</g>
<!-- LogicQuestion&#45;&gt;LogicQuestionAnswer -->
<g id="edge12" class="edge"><title>LogicQuestion&#45;&gt;LogicQuestionAnswer</title>
<path fill="none" stroke="#741f05" d="M246.546,-79.8776C237.596,-68.6578 226.837,-55.1686 217.723,-43.7423"/>
<ellipse fill="none" stroke="#741f05" cx="249.257" cy="-83.2772" rx="4.00002" ry="4.00002"/>
<polygon fill="#741f05" stroke="#741f05" points="217.663,-43.6665 214.945,-33.0427 214.545,-39.7576 211.427,-35.8487 211.427,-35.8487 211.427,-35.8487 214.545,-39.7576 207.909,-38.6548 217.663,-43.6665 217.663,-43.6665"/>
</g>
<!-- ProfileQuestion&#45;&gt;ProfileQuestionAnswer -->
<g id="edge13" class="edge"><title>ProfileQuestion&#45;&gt;ProfileQuestionAnswer</title>
<path fill="none" stroke="#f0f93c" d="M789.249,-78.3743C793.553,-68.0451 798.566,-56.0138 802.95,-45.4929"/>
<ellipse fill="none" stroke="#f0f93c" cx="787.61" cy="-82.309" rx="4.00001" ry="4.00001"/>
<polygon fill="#f0f93c" stroke="#f0f93c" points="803.07,-45.2041 811.07,-37.7042 804.993,-40.5888 806.916,-35.9734 806.916,-35.9734 806.916,-35.9734 804.993,-40.5888 802.762,-34.2426 803.07,-45.2041 803.07,-45.2041"/>
</g>
<!-- User -->
<g id="node11" class="node"><title>User</title>
<ellipse fill="none" stroke="black" cx="501.988" cy="-195.5" rx="27" ry="18"/>
<text text-anchor="middle" x="501.988" y="-191.3" font-family="Times,serif" font-size="14.00">User</text>
</g>
<!-- User&#45;&gt;AdmissionApplication -->
<g id="edge14" class="edge"><title>User&#45;&gt;AdmissionApplication</title>
<path fill="none" stroke="#7a52fb" d="M501.988,-168.903C501.988,-156.857 501.988,-142.528 501.988,-130.495"/>
<ellipse fill="none" stroke="#7a52fb" cx="501.988" cy="-173.243" rx="4" ry="4"/>
<ellipse fill="#7a52fb" stroke="#7a52fb" cx="501.988" cy="-126.204" rx="4" ry="4"/>
</g>
</g>
</svg>
