<?xml version="1.0" encoding="UTF-8" standalone="no"?>
<!DOCTYPE svg PUBLIC "-//W3C//DTD SVG 1.1//EN"
 "http://www.w3.org/Graphics/SVG/1.1/DTD/svg11.dtd">
<!-- Generated by graphviz version 2.38.0 (20140413.2041)
 -->
<!-- Title: models_diagram Pages: 1 -->
<svg width="1190pt" height="1308pt"
 viewBox="0.00 0.00 1190.34 1308.00" xmlns="http://www.w3.org/2000/svg" xmlns:xlink="http://www.w3.org/1999/xlink">
<g id="graph0" class="graph" transform="scale(1 1) rotate(0) translate(4 1304)">
<title>models_diagram</title>
<polygon fill="none" stroke="none" points="-4,4 -4,-1304 1186.34,-1304 1186.34,4 -4,4"/>
<!-- _diagram_info -->
<g id="node1" class="node"><title>_diagram_info</title>
<text text-anchor="start" x="317.59" y="-1215.6" font-family="Times,serif" font-size="13.00">Models diagram</text>
<text text-anchor="start" x="317.59" y="-1202.6" font-family="Times,serif" font-size="13.00">Date: Sep 08 2015 &#45; 14:50</text>
<text text-anchor="start" x="317.59" y="-1189.6" font-family="Times,serif" font-size="13.00">Migration version: 20150723200102</text>
<text text-anchor="start" x="317.59" y="-1176.6" font-family="Times,serif" font-size="13.00">Generated by RailRoady 1.3.1</text>
<text text-anchor="start" x="317.59" y="-1163.6" font-family="Times,serif" font-size="13.00">http://railroady.prestonlee.com</text>
</g>
<!-- Admin -->
<g id="node2" class="node"><title>Admin</title>
<path fill="none" stroke="black" d="M12,-522.5C12,-522.5 192.556,-522.5 192.556,-522.5 198.556,-522.5 204.556,-528.5 204.556,-534.5 204.556,-534.5 204.556,-764.5 204.556,-764.5 204.556,-770.5 198.556,-776.5 192.556,-776.5 192.556,-776.5 12,-776.5 12,-776.5 6,-776.5 0,-770.5 0,-764.5 0,-764.5 0,-534.5 0,-534.5 0,-528.5 6,-522.5 12,-522.5"/>
<text text-anchor="middle" x="102.278" y="-761.3" font-family="Times,serif" font-size="14.00">Admin</text>
<polyline fill="none" stroke="black" points="0,-754.5 204.556,-754.5 "/>
<text text-anchor="start" x="8" y="-739.3" font-family="Times,serif" font-size="14.00">id :integer</text>
<text text-anchor="start" x="8" y="-725.3" font-family="Times,serif" font-size="14.00">email :string</text>
<text text-anchor="start" x="8" y="-711.3" font-family="Times,serif" font-size="14.00">encrypted_password :string</text>
<text text-anchor="start" x="8" y="-697.3" font-family="Times,serif" font-size="14.00">reset_password_token :string</text>
<text text-anchor="start" x="8" y="-683.3" font-family="Times,serif" font-size="14.00">reset_password_sent_at :datetime</text>
<text text-anchor="start" x="8" y="-669.3" font-family="Times,serif" font-size="14.00">remember_created_at :datetime</text>
<text text-anchor="start" x="8" y="-655.3" font-family="Times,serif" font-size="14.00">sign_in_count :integer</text>
<text text-anchor="start" x="8" y="-641.3" font-family="Times,serif" font-size="14.00">current_sign_in_at :datetime</text>
<text text-anchor="start" x="8" y="-627.3" font-family="Times,serif" font-size="14.00">last_sign_in_at :datetime</text>
<text text-anchor="start" x="8" y="-613.3" font-family="Times,serif" font-size="14.00">current_sign_in_ip :string</text>
<text text-anchor="start" x="8" y="-599.3" font-family="Times,serif" font-size="14.00">last_sign_in_ip :string</text>
<text text-anchor="start" x="8" y="-585.3" font-family="Times,serif" font-size="14.00">created_at :datetime</text>
<text text-anchor="start" x="8" y="-571.3" font-family="Times,serif" font-size="14.00">updated_at :datetime</text>
<text text-anchor="start" x="8" y="-557.3" font-family="Times,serif" font-size="14.00">first_name :string</text>
<text text-anchor="start" x="8" y="-543.3" font-family="Times,serif" font-size="14.00">last_name :string</text>
<text text-anchor="start" x="8" y="-529.3" font-family="Times,serif" font-size="14.00">status :string</text>
</g>
<!-- Comment -->
<g id="node5" class="node"><title>Comment</title>
<path fill="none" stroke="black" d="M25.2104,-21.5C25.2104,-21.5 179.345,-21.5 179.345,-21.5 185.345,-21.5 191.345,-27.5 191.345,-33.5 191.345,-33.5 191.345,-165.5 191.345,-165.5 191.345,-171.5 185.345,-177.5 179.345,-177.5 179.345,-177.5 25.2104,-177.5 25.2104,-177.5 19.2104,-177.5 13.2104,-171.5 13.2104,-165.5 13.2104,-165.5 13.2104,-33.5 13.2104,-33.5 13.2104,-27.5 19.2104,-21.5 25.2104,-21.5"/>
<text text-anchor="middle" x="102.278" y="-162.3" font-family="Times,serif" font-size="14.00">Comment</text>
<polyline fill="none" stroke="black" points="13.2104,-155.5 191.345,-155.5 "/>
<text text-anchor="start" x="21.2104" y="-140.3" font-family="Times,serif" font-size="14.00">id :integer</text>
<text text-anchor="start" x="21.2104" y="-126.3" font-family="Times,serif" font-size="14.00">content :text</text>
<text text-anchor="start" x="21.2104" y="-112.3" font-family="Times,serif" font-size="14.00">sub_type :string</text>
<text text-anchor="start" x="21.2104" y="-98.3" font-family="Times,serif" font-size="14.00">admin_id :integer</text>
<text text-anchor="start" x="21.2104" y="-84.3" font-family="Times,serif" font-size="14.00">is_commentable_id :integer</text>
<text text-anchor="start" x="21.2104" y="-70.3" font-family="Times,serif" font-size="14.00">is_commentable_type :string</text>
<text text-anchor="start" x="21.2104" y="-56.3" font-family="Times,serif" font-size="14.00">created_at :datetime</text>
<text text-anchor="start" x="21.2104" y="-42.3" font-family="Times,serif" font-size="14.00">updated_at :datetime</text>
<text text-anchor="start" x="21.2104" y="-28.3" font-family="Times,serif" font-size="14.00">archived :boolean</text>
</g>
<!-- Admin&#45;&gt;Comment -->
<g id="edge1" class="edge"><title>Admin&#45;&gt;Comment</title>
<path fill="none" stroke="#101e25" d="M102.278,-514.253C102.278,-412.592 102.278,-275.882 102.278,-187.961"/>
<ellipse fill="none" stroke="#101e25" cx="102.278" cy="-518.434" rx="4" ry="4"/>
<polygon fill="#101e25" stroke="#101e25" points="102.278,-187.752 106.778,-177.752 102.278,-182.752 102.278,-177.752 102.278,-177.752 102.278,-177.752 102.278,-182.752 97.7778,-177.752 102.278,-187.752 102.278,-187.752"/>
</g>
<!-- AdmissionApplication -->
<g id="node3" class="node"><title>AdmissionApplication</title>
<path fill="none" stroke="black" d="M547.728,-249.5C547.728,-249.5 764.828,-249.5 764.828,-249.5 770.828,-249.5 776.828,-255.5 776.828,-261.5 776.828,-261.5 776.828,-1037.5 776.828,-1037.5 776.828,-1043.5 770.828,-1049.5 764.828,-1049.5 764.828,-1049.5 547.728,-1049.5 547.728,-1049.5 541.728,-1049.5 535.728,-1043.5 535.728,-1037.5 535.728,-1037.5 535.728,-261.5 535.728,-261.5 535.728,-255.5 541.728,-249.5 547.728,-249.5"/>
<text text-anchor="middle" x="656.278" y="-1034.3" font-family="Times,serif" font-size="14.00">AdmissionApplication</text>
<polyline fill="none" stroke="black" points="535.728,-1027.5 776.828,-1027.5 "/>
<text text-anchor="start" x="543.728" y="-1012.3" font-family="Times,serif" font-size="14.00">id :integer</text>
<text text-anchor="start" x="543.728" y="-998.3" font-family="Times,serif" font-size="14.00">first_name :string</text>
<text text-anchor="start" x="543.728" y="-984.3" font-family="Times,serif" font-size="14.00">middle_name :string</text>
<text text-anchor="start" x="543.728" y="-970.3" font-family="Times,serif" font-size="14.00">last_name :string</text>
<text text-anchor="start" x="543.728" y="-956.3" font-family="Times,serif" font-size="14.00">date_of_birth :date</text>
<text text-anchor="start" x="543.728" y="-942.3" font-family="Times,serif" font-size="14.00">email :string</text>
<text text-anchor="start" x="543.728" y="-928.3" font-family="Times,serif" font-size="14.00">city :string</text>
<text text-anchor="start" x="543.728" y="-914.3" font-family="Times,serif" font-size="14.00">state :string</text>
<text text-anchor="start" x="543.728" y="-900.3" font-family="Times,serif" font-size="14.00">zip_code :string</text>
<text text-anchor="start" x="543.728" y="-886.3" font-family="Times,serif" font-size="14.00">legal_status :string</text>
<text text-anchor="start" x="543.728" y="-872.3" font-family="Times,serif" font-size="14.00">education :string</text>
<text text-anchor="start" x="543.728" y="-858.3" font-family="Times,serif" font-size="14.00">employment_status :string</text>
<text text-anchor="start" x="543.728" y="-844.3" font-family="Times,serif" font-size="14.00">linkedin_account :string</text>
<text text-anchor="start" x="543.728" y="-830.3" font-family="Times,serif" font-size="14.00">twitter_account :string</text>
<text text-anchor="start" x="543.728" y="-816.3" font-family="Times,serif" font-size="14.00">github_account :string</text>
<text text-anchor="start" x="543.728" y="-802.3" font-family="Times,serif" font-size="14.00">website_link :string</text>
<text text-anchor="start" x="543.728" y="-788.3" font-family="Times,serif" font-size="14.00">resume_link :string</text>
<text text-anchor="start" x="543.728" y="-774.3" font-family="Times,serif" font-size="14.00">referral_source :string</text>
<text text-anchor="start" x="543.728" y="-760.3" font-family="Times,serif" font-size="14.00">question_reason_for_applying :text</text>
<text text-anchor="start" x="543.728" y="-746.3" font-family="Times,serif" font-size="14.00">question_why_prime :text</text>
<text text-anchor="start" x="543.728" y="-732.3" font-family="Times,serif" font-size="14.00">question_intensity :text</text>
<text text-anchor="start" x="543.728" y="-718.3" font-family="Times,serif" font-size="14.00">question_technology_background :text</text>
<text text-anchor="start" x="543.728" y="-704.3" font-family="Times,serif" font-size="14.00">question_self_differentiation :text</text>
<text text-anchor="start" x="543.728" y="-690.3" font-family="Times,serif" font-size="14.00">question_three_month_prediction :text</text>
<text text-anchor="start" x="543.728" y="-676.3" font-family="Times,serif" font-size="14.00">question_three_year_aspiration :text</text>
<text text-anchor="start" x="543.728" y="-662.3" font-family="Times,serif" font-size="14.00">question_actions_toward_goals :text</text>
<text text-anchor="start" x="543.728" y="-648.3" font-family="Times,serif" font-size="14.00">application_status :string</text>
<text text-anchor="start" x="543.728" y="-634.3" font-family="Times,serif" font-size="14.00">application_step :string</text>
<text text-anchor="start" x="543.728" y="-620.3" font-family="Times,serif" font-size="14.00">user_id :integer</text>
<text text-anchor="start" x="543.728" y="-606.3" font-family="Times,serif" font-size="14.00">created_at :datetime</text>
<text text-anchor="start" x="543.728" y="-592.3" font-family="Times,serif" font-size="14.00">updated_at :datetime</text>
<text text-anchor="start" x="543.728" y="-578.3" font-family="Times,serif" font-size="14.00">completed_at :datetime</text>
<text text-anchor="start" x="543.728" y="-564.3" font-family="Times,serif" font-size="14.00">address :string</text>
<text text-anchor="start" x="543.728" y="-550.3" font-family="Times,serif" font-size="14.00">phone :string</text>
<text text-anchor="start" x="543.728" y="-536.3" font-family="Times,serif" font-size="14.00">income :integer</text>
<text text-anchor="start" x="543.728" y="-522.3" font-family="Times,serif" font-size="14.00">goal :string</text>
<text text-anchor="start" x="543.728" y="-508.3" font-family="Times,serif" font-size="14.00">payment_option :string</text>
<text text-anchor="start" x="543.728" y="-494.3" font-family="Times,serif" font-size="14.00">resume_score :integer</text>
<text text-anchor="start" x="543.728" y="-480.3" font-family="Times,serif" font-size="14.00">resume_notes :text</text>
<text text-anchor="start" x="543.728" y="-466.3" font-family="Times,serif" font-size="14.00">interview_score :integer</text>
<text text-anchor="start" x="543.728" y="-452.3" font-family="Times,serif" font-size="14.00">assigned_cohort_id :integer</text>
<text text-anchor="start" x="543.728" y="-438.3" font-family="Times,serif" font-size="14.00">gender :string</text>
<text text-anchor="start" x="543.728" y="-424.3" font-family="Times,serif" font-size="14.00">dependents :integer</text>
<text text-anchor="start" x="543.728" y="-410.3" font-family="Times,serif" font-size="14.00">geography :string</text>
<text text-anchor="start" x="543.728" y="-396.3" font-family="Times,serif" font-size="14.00">birthdate :date</text>
<text text-anchor="start" x="543.728" y="-382.3" font-family="Times,serif" font-size="14.00">veteran :boolean</text>
<text text-anchor="start" x="543.728" y="-368.3" font-family="Times,serif" font-size="14.00">race_hispanic :boolean</text>
<text text-anchor="start" x="543.728" y="-354.3" font-family="Times,serif" font-size="14.00">race_nativeamerican :boolean</text>
<text text-anchor="start" x="543.728" y="-340.3" font-family="Times,serif" font-size="14.00">race_asian :boolean</text>
<text text-anchor="start" x="543.728" y="-326.3" font-family="Times,serif" font-size="14.00">race_black :boolean</text>
<text text-anchor="start" x="543.728" y="-312.3" font-family="Times,serif" font-size="14.00">race_islander :boolean</text>
<text text-anchor="start" x="543.728" y="-298.3" font-family="Times,serif" font-size="14.00">race_white :boolean</text>
<text text-anchor="start" x="543.728" y="-284.3" font-family="Times,serif" font-size="14.00">race_other :boolean</text>
<text text-anchor="start" x="543.728" y="-270.3" font-family="Times,serif" font-size="14.00">application_status_updated_at :datetime</text>
<text text-anchor="start" x="543.728" y="-256.3" font-family="Times,serif" font-size="14.00">course_id :integer</text>
</g>
<!-- Cohort -->
<g id="node4" class="node"><title>Cohort</title>
<path fill="none" stroke="black" d="M445.503,-0.5C445.503,-0.5 619.052,-0.5 619.052,-0.5 625.052,-0.5 631.052,-6.5 631.052,-12.5 631.052,-12.5 631.052,-186.5 631.052,-186.5 631.052,-192.5 625.052,-198.5 619.052,-198.5 619.052,-198.5 445.503,-198.5 445.503,-198.5 439.503,-198.5 433.503,-192.5 433.503,-186.5 433.503,-186.5 433.503,-12.5 433.503,-12.5 433.503,-6.5 439.503,-0.5 445.503,-0.5"/>
<text text-anchor="middle" x="532.278" y="-183.3" font-family="Times,serif" font-size="14.00">Cohort</text>
<polyline fill="none" stroke="black" points="433.503,-176.5 631.052,-176.5 "/>
<text text-anchor="start" x="441.503" y="-161.3" font-family="Times,serif" font-size="14.00">id :integer</text>
<text text-anchor="start" x="441.503" y="-147.3" font-family="Times,serif" font-size="14.00">prework_start :date</text>
<text text-anchor="start" x="441.503" y="-133.3" font-family="Times,serif" font-size="14.00">classroom_start :date</text>
<text text-anchor="start" x="441.503" y="-119.3" font-family="Times,serif" font-size="14.00">graduation :date</text>
<text text-anchor="start" x="441.503" y="-105.3" font-family="Times,serif" font-size="14.00">applications_open :date</text>
<text text-anchor="start" x="441.503" y="-91.3" font-family="Times,serif" font-size="14.00">applications_close :date</text>
<text text-anchor="start" x="441.503" y="-77.3" font-family="Times,serif" font-size="14.00">created_at :datetime</text>
<text text-anchor="start" x="441.503" y="-63.3" font-family="Times,serif" font-size="14.00">updated_at :datetime</text>
<text text-anchor="start" x="441.503" y="-49.3" font-family="Times,serif" font-size="14.00">name :string</text>
<text text-anchor="start" x="441.503" y="-35.3" font-family="Times,serif" font-size="14.00">target_size :integer</text>
<text text-anchor="start" x="441.503" y="-21.3" font-family="Times,serif" font-size="14.00">earnest_application_code :string</text>
<text text-anchor="start" x="441.503" y="-7.3" font-family="Times,serif" font-size="14.00">course_id :integer</text>
</g>
<!-- AdmissionApplication&#45;&gt;Cohort -->
<g id="edge4" class="edge"><title>AdmissionApplication&#45;&gt;Cohort</title>
<path fill="none" stroke="#281d8e" d="M703.37,-240.192C699.219,-232.225 694.535,-224.481 689.278,-217 677.182,-199.79 662.993,-208.667 640.066,-198.549"/>
<polygon fill="#281d8e" stroke="#281d8e" points="703.425,-240.303 703.795,-251.262 705.629,-244.791 707.834,-249.278 707.834,-249.278 707.834,-249.278 705.629,-244.791 711.873,-247.294 703.425,-240.303 703.425,-240.303"/>
<polygon fill="#281d8e" stroke="#281d8e" points="640.056,-198.544 633.311,-189.899 635.634,-196.212 631.211,-193.879 631.211,-193.879 631.211,-193.879 635.634,-196.212 629.112,-197.859 640.056,-198.544 640.056,-198.544"/>
</g>
<!-- AdmissionApplication&#45;&gt;Comment -->
<g id="edge3" class="edge"><title>AdmissionApplication&#45;&gt;Comment</title>
<path fill="none" stroke="#4fa8ce" d="M530.592,-303.761C514.54,-283.402 496.512,-264.813 476.278,-249 427.164,-210.619 255.462,-227.981 200.278,-199 192.201,-194.758 184.371,-189.62 176.892,-183.942"/>
<ellipse fill="none" stroke="#4fa8ce" cx="533.067" cy="-306.968" rx="4.00002" ry="4.00002"/>
<polygon fill="#4fa8ce" stroke="#4fa8ce" points="176.739,-183.82 171.725,-174.068 172.829,-180.704 168.92,-177.587 168.92,-177.587 168.92,-177.587 172.829,-180.704 166.115,-181.106 176.739,-183.82 176.739,-183.82"/>
</g>
<!-- LogicQuestionAnswer -->
<g id="node8" class="node"><title>LogicQuestionAnswer</title>
<path fill="none" stroke="black" d="M221.214,-35.5C221.214,-35.5 403.342,-35.5 403.342,-35.5 409.342,-35.5 415.342,-41.5 415.342,-47.5 415.342,-47.5 415.342,-151.5 415.342,-151.5 415.342,-157.5 409.342,-163.5 403.342,-163.5 403.342,-163.5 221.214,-163.5 221.214,-163.5 215.214,-163.5 209.214,-157.5 209.214,-151.5 209.214,-151.5 209.214,-47.5 209.214,-47.5 209.214,-41.5 215.214,-35.5 221.214,-35.5"/>
<text text-anchor="middle" x="312.278" y="-148.3" font-family="Times,serif" font-size="14.00">LogicQuestionAnswer</text>
<polyline fill="none" stroke="black" points="209.214,-141.5 415.342,-141.5 "/>
<text text-anchor="start" x="217.214" y="-126.3" font-family="Times,serif" font-size="14.00">id :integer</text>
<text text-anchor="start" x="217.214" y="-112.3" font-family="Times,serif" font-size="14.00">logic_question_id :integer</text>
<text text-anchor="start" x="217.214" y="-98.3" font-family="Times,serif" font-size="14.00">admission_application_id :integer</text>
<text text-anchor="start" x="217.214" y="-84.3" font-family="Times,serif" font-size="14.00">answer :string</text>
<text text-anchor="start" x="217.214" y="-70.3" font-family="Times,serif" font-size="14.00">explanation :text</text>
<text text-anchor="start" x="217.214" y="-56.3" font-family="Times,serif" font-size="14.00">created_at :datetime</text>
<text text-anchor="start" x="217.214" y="-42.3" font-family="Times,serif" font-size="14.00">updated_at :datetime</text>
</g>
<!-- AdmissionApplication&#45;&gt;LogicQuestionAnswer -->
<g id="edge5" class="edge"><title>AdmissionApplication&#45;&gt;LogicQuestionAnswer</title>
<path fill="none" stroke="#b0b7bc" d="M531.9,-337.805C514.928,-306.778 496.358,-276.591 476.278,-249 472.647,-244.012 431.339,-206.614 391.094,-170.601"/>
<ellipse fill="none" stroke="#b0b7bc" cx="533.817" cy="-341.342" rx="4.00002" ry="4.00002"/>
<polygon fill="#b0b7bc" stroke="#b0b7bc" points="391.055,-170.567 386.6,-160.546 387.328,-167.234 383.601,-163.901 383.601,-163.901 383.601,-163.901 387.328,-167.234 380.601,-167.255 391.055,-170.567 391.055,-170.567"/>
</g>
<!-- ProfileQuestionAnswer -->
<g id="node10" class="node"><title>ProfileQuestionAnswer</title>
<path fill="none" stroke="black" d="M988.214,-35.5C988.214,-35.5 1170.34,-35.5 1170.34,-35.5 1176.34,-35.5 1182.34,-41.5 1182.34,-47.5 1182.34,-47.5 1182.34,-151.5 1182.34,-151.5 1182.34,-157.5 1176.34,-163.5 1170.34,-163.5 1170.34,-163.5 988.214,-163.5 988.214,-163.5 982.214,-163.5 976.214,-157.5 976.214,-151.5 976.214,-151.5 976.214,-47.5 976.214,-47.5 976.214,-41.5 982.214,-35.5 988.214,-35.5"/>
<text text-anchor="middle" x="1079.28" y="-148.3" font-family="Times,serif" font-size="14.00">ProfileQuestionAnswer</text>
<polyline fill="none" stroke="black" points="976.214,-141.5 1182.34,-141.5 "/>
<text text-anchor="start" x="984.214" y="-126.3" font-family="Times,serif" font-size="14.00">id :integer</text>
<text text-anchor="start" x="984.214" y="-112.3" font-family="Times,serif" font-size="14.00">answer :text</text>
<text text-anchor="start" x="984.214" y="-98.3" font-family="Times,serif" font-size="14.00">score :integer</text>
<text text-anchor="start" x="984.214" y="-84.3" font-family="Times,serif" font-size="14.00">created_at :datetime</text>
<text text-anchor="start" x="984.214" y="-70.3" font-family="Times,serif" font-size="14.00">updated_at :datetime</text>
<text text-anchor="start" x="984.214" y="-56.3" font-family="Times,serif" font-size="14.00">admission_application_id :integer</text>
<text text-anchor="start" x="984.214" y="-42.3" font-family="Times,serif" font-size="14.00">profile_question_id :integer</text>
</g>
<!-- AdmissionApplication&#45;&gt;ProfileQuestionAnswer -->
<g id="edge6" class="edge"><title>AdmissionApplication&#45;&gt;ProfileQuestionAnswer</title>
<path fill="none" stroke="#4e3127" d="M781.497,-444.754C824.357,-380.073 874.395,-309.644 925.278,-249 947.984,-221.938 975.075,-194.487 1000.16,-170.671"/>
<ellipse fill="none" stroke="#4e3127" cx="779.046" cy="-448.464" rx="4.00002" ry="4.00002"/>
<polygon fill="#4e3127" stroke="#4e3127" points="1000.25,-170.588 1010.61,-167.002 1003.88,-167.158 1007.52,-163.728 1007.52,-163.728 1007.52,-163.728 1003.88,-167.158 1004.44,-160.454 1000.25,-170.588 1000.25,-170.588"/>
</g>
<!-- Audited::Adapters::ActiveRecord::Audit -->
<g id="node12" class="node"><title>Audited::Adapters::ActiveRecord::Audit</title>
<ellipse fill="none" stroke="black" cx="803.278" cy="-99.5" rx="154.534" ry="18"/>
<text text-anchor="middle" x="803.278" y="-95.3" font-family="Times,serif" font-size="14.00">Audited::Adapters::ActiveRecord::Audit</text>
</g>
<!-- AdmissionApplication&#45;&gt;Audited::Adapters::ActiveRecord::Audit -->
<g id="edge2" class="edge"><title>AdmissionApplication&#45;&gt;Audited::Adapters::ActiveRecord::Audit</title>
<path fill="none" stroke="#0af0b4" d="M744.104,-241.332C746.632,-233.13 749.209,-225.011 751.836,-217 762.265,-185.198 778.347,-150.272 789.75,-127.036"/>
<ellipse fill="none" stroke="#0af0b4" cx="742.864" cy="-245.395" rx="4.00001" ry="4.00001"/>
<polygon fill="#0af0b4" stroke="#0af0b4" points="789.871,-126.792 798.351,-119.838 792.096,-122.314 794.321,-117.836 794.321,-117.836 794.321,-117.836 792.096,-122.314 790.29,-115.834 789.871,-126.792 789.871,-126.792"/>
<text text-anchor="middle" x="768.999" y="-219.8" font-family="Times,serif" font-size="14.00">audits</text>
</g>
<!-- Cohort&#45;&gt;AdmissionApplication -->
<g id="edge7" class="edge"><title>Cohort&#45;&gt;AdmissionApplication</title>
<path fill="none" stroke="#a70776" d="M497.04,-206.962C496.749,-215.066 497.203,-223.146 498.636,-231 506.476,-273.959 518.506,-318.238 532.499,-361.176"/>
<ellipse fill="none" stroke="#a70776" cx="497.309" cy="-202.847" rx="4" ry="4"/>
<polygon fill="#a70776" stroke="#a70776" points="532.572,-361.397 531.434,-372.304 534.14,-366.145 535.707,-370.894 535.707,-370.894 535.707,-370.894 534.14,-366.145 539.98,-369.483 532.572,-361.397 532.572,-361.397"/>
<text text-anchor="middle" x="592.599" y="-219.8" font-family="Times,serif" font-size="14.00">assigned_admission_applications</text>
</g>
<!-- Course -->
<g id="node6" class="node"><title>Course</title>
<path fill="none" stroke="black" d="M769.772,-1129.5C769.772,-1129.5 878.783,-1129.5 878.783,-1129.5 884.783,-1129.5 890.783,-1135.5 890.783,-1141.5 890.783,-1141.5 890.783,-1245.5 890.783,-1245.5 890.783,-1251.5 884.783,-1257.5 878.783,-1257.5 878.783,-1257.5 769.772,-1257.5 769.772,-1257.5 763.772,-1257.5 757.772,-1251.5 757.772,-1245.5 757.772,-1245.5 757.772,-1141.5 757.772,-1141.5 757.772,-1135.5 763.772,-1129.5 769.772,-1129.5"/>
<text text-anchor="middle" x="824.278" y="-1242.3" font-family="Times,serif" font-size="14.00">Course</text>
<polyline fill="none" stroke="black" points="757.772,-1235.5 890.783,-1235.5 "/>
<text text-anchor="start" x="765.772" y="-1220.3" font-family="Times,serif" font-size="14.00">id :integer</text>
<text text-anchor="start" x="765.772" y="-1206.3" font-family="Times,serif" font-size="14.00">code :string</text>
<text text-anchor="start" x="765.772" y="-1192.3" font-family="Times,serif" font-size="14.00">name :string</text>
<text text-anchor="start" x="765.772" y="-1178.3" font-family="Times,serif" font-size="14.00">description :string</text>
<text text-anchor="start" x="765.772" y="-1164.3" font-family="Times,serif" font-size="14.00">created_at :datetime</text>
<text text-anchor="start" x="765.772" y="-1150.3" font-family="Times,serif" font-size="14.00">updated_at :datetime</text>
<text text-anchor="start" x="765.772" y="-1136.3" font-family="Times,serif" font-size="14.00">active :boolean</text>
</g>
<!-- Course&#45;&gt;AdmissionApplication -->
<g id="edge8" class="edge"><title>Course&#45;&gt;AdmissionApplication</title>
<path fill="none" stroke="#b2b1ec" d="M802.261,-1121.47C795.745,-1100.45 788.106,-1075.8 779.799,-1049"/>
<ellipse fill="none" stroke="#b2b1ec" cx="803.493" cy="-1125.44" rx="4.00001" ry="4.00001"/>
<polygon fill="#b2b1ec" stroke="#b2b1ec" points="779.794,-1048.99 781.132,-1038.1 778.314,-1044.21 776.833,-1039.44 776.833,-1039.44 776.833,-1039.44 778.314,-1044.21 772.535,-1040.77 779.794,-1048.99 779.794,-1048.99"/>
</g>
<!-- Course&#45;&gt;Cohort -->
<g id="edge9" class="edge"><title>Course&#45;&gt;Cohort</title>
<path fill="none" stroke="#4933d7" d="M833.055,-1121.2C856.263,-918.956 909.573,-347.793 789.278,-217 768.238,-194.124 683.728,-210.218 640.612,-198.345"/>
<ellipse fill="none" stroke="#4933d7" cx="832.567" cy="-1125.42" rx="4.00001" ry="4.00001"/>
<polygon fill="#4933d7" stroke="#4933d7" points="640.503,-198.305 632.62,-190.682 635.799,-196.611 631.095,-194.916 631.095,-194.916 631.095,-194.916 635.799,-196.611 629.569,-199.149 640.503,-198.305 640.503,-198.305"/>
</g>
<!-- LogicQuestion -->
<g id="node7" class="node"><title>LogicQuestion</title>
<path fill="none" stroke="black" d="M250.948,-543.5C250.948,-543.5 455.607,-543.5 455.607,-543.5 461.607,-543.5 467.607,-549.5 467.607,-555.5 467.607,-555.5 467.607,-743.5 467.607,-743.5 467.607,-749.5 461.607,-755.5 455.607,-755.5 455.607,-755.5 250.948,-755.5 250.948,-755.5 244.948,-755.5 238.948,-749.5 238.948,-743.5 238.948,-743.5 238.948,-555.5 238.948,-555.5 238.948,-549.5 244.948,-543.5 250.948,-543.5"/>
<text text-anchor="middle" x="353.278" y="-740.3" font-family="Times,serif" font-size="14.00">LogicQuestion</text>
<polyline fill="none" stroke="black" points="238.948,-733.5 467.607,-733.5 "/>
<text text-anchor="start" x="246.948" y="-718.3" font-family="Times,serif" font-size="14.00">id :integer</text>
<text text-anchor="start" x="246.948" y="-704.3" font-family="Times,serif" font-size="14.00">question :text</text>
<text text-anchor="start" x="246.948" y="-690.3" font-family="Times,serif" font-size="14.00">solution :string</text>
<text text-anchor="start" x="246.948" y="-676.3" font-family="Times,serif" font-size="14.00">created_at :datetime</text>
<text text-anchor="start" x="246.948" y="-662.3" font-family="Times,serif" font-size="14.00">updated_at :datetime</text>
<text text-anchor="start" x="246.948" y="-648.3" font-family="Times,serif" font-size="14.00">question_image_file_name :string</text>
<text text-anchor="start" x="246.948" y="-634.3" font-family="Times,serif" font-size="14.00">question_image_content_type :string</text>
<text text-anchor="start" x="246.948" y="-620.3" font-family="Times,serif" font-size="14.00">question_image_file_size :integer</text>
<text text-anchor="start" x="246.948" y="-606.3" font-family="Times,serif" font-size="14.00">question_image_updated_at :datetime</text>
<text text-anchor="start" x="246.948" y="-592.3" font-family="Times,serif" font-size="14.00">published :boolean</text>
<text text-anchor="start" x="246.948" y="-578.3" font-family="Times,serif" font-size="14.00">position :integer</text>
<text text-anchor="start" x="246.948" y="-564.3" font-family="Times,serif" font-size="14.00">course_id :integer</text>
<text text-anchor="start" x="246.948" y="-550.3" font-family="Times,serif" font-size="14.00">active :boolean</text>
</g>
<!-- Course&#45;&gt;LogicQuestion -->
<g id="edge10" class="edge"><title>Course&#45;&gt;LogicQuestion</title>
<path fill="none" stroke="#8e428c" d="M785.854,-1122.6C775.345,-1108.9 762.779,-1096.01 748.278,-1087 663.308,-1034.22 605.075,-1111.62 526.278,-1050 437.667,-980.71 393.615,-856.963 372.262,-765.496"/>
<ellipse fill="none" stroke="#8e428c" cx="788.473" cy="-1126.15" rx="4.00002" ry="4.00002"/>
<polygon fill="#8e428c" stroke="#8e428c" points="372.235,-765.381 374.405,-754.632 371.126,-760.505 370.017,-755.63 370.017,-755.63 370.017,-755.63 371.126,-760.505 365.629,-756.628 372.235,-765.381 372.235,-765.381"/>
</g>
<!-- ProfileQuestion -->
<g id="node9" class="node"><title>ProfileQuestion</title>
<path fill="none" stroke="black" d="M945.931,-543.5C945.931,-543.5 1080.62,-543.5 1080.62,-543.5 1086.62,-543.5 1092.62,-549.5 1092.62,-555.5 1092.62,-555.5 1092.62,-743.5 1092.62,-743.5 1092.62,-749.5 1086.62,-755.5 1080.62,-755.5 1080.62,-755.5 945.931,-755.5 945.931,-755.5 939.931,-755.5 933.931,-749.5 933.931,-743.5 933.931,-743.5 933.931,-555.5 933.931,-555.5 933.931,-549.5 939.931,-543.5 945.931,-543.5"/>
<text text-anchor="middle" x="1013.28" y="-740.3" font-family="Times,serif" font-size="14.00">ProfileQuestion</text>
<polyline fill="none" stroke="black" points="933.931,-733.5 1092.62,-733.5 "/>
<text text-anchor="start" x="941.931" y="-718.3" font-family="Times,serif" font-size="14.00">id :integer</text>
<text text-anchor="start" x="941.931" y="-704.3" font-family="Times,serif" font-size="14.00">question :text</text>
<text text-anchor="start" x="941.931" y="-690.3" font-family="Times,serif" font-size="14.00">published :boolean</text>
<text text-anchor="start" x="941.931" y="-676.3" font-family="Times,serif" font-size="14.00">scoring_guideline_1 :text</text>
<text text-anchor="start" x="941.931" y="-662.3" font-family="Times,serif" font-size="14.00">scoring_guideline_2 :text</text>
<text text-anchor="start" x="941.931" y="-648.3" font-family="Times,serif" font-size="14.00">scoring_guideline_3 :text</text>
<text text-anchor="start" x="941.931" y="-634.3" font-family="Times,serif" font-size="14.00">scoring_guideline_4 :text</text>
<text text-anchor="start" x="941.931" y="-620.3" font-family="Times,serif" font-size="14.00">scoring_guideline_5 :text</text>
<text text-anchor="start" x="941.931" y="-606.3" font-family="Times,serif" font-size="14.00">created_at :datetime</text>
<text text-anchor="start" x="941.931" y="-592.3" font-family="Times,serif" font-size="14.00">updated_at :datetime</text>
<text text-anchor="start" x="941.931" y="-578.3" font-family="Times,serif" font-size="14.00">position :integer</text>
<text text-anchor="start" x="941.931" y="-564.3" font-family="Times,serif" font-size="14.00">course_id :integer</text>
<text text-anchor="start" x="941.931" y="-550.3" font-family="Times,serif" font-size="14.00">active :boolean</text>
</g>
<!-- Course&#45;&gt;ProfileQuestion -->
<g id="edge11" class="edge"><title>Course&#45;&gt;ProfileQuestion</title>
<path fill="none" stroke="#74cf80" d="M849.014,-1121.56C880.61,-1030.96 935.693,-872.992 973.287,-765.183"/>
<ellipse fill="none" stroke="#74cf80" cx="847.646" cy="-1125.49" rx="4.00001" ry="4.00001"/>
<polygon fill="#74cf80" stroke="#74cf80" points="973.349,-765.004 980.891,-757.043 974.996,-760.283 976.642,-755.562 976.642,-755.562 976.642,-755.562 974.996,-760.283 972.393,-754.08 973.349,-765.004 973.349,-765.004"/>
</g>
<!-- LogicQuestion&#45;&gt;LogicQuestionAnswer -->
<g id="edge12" class="edge"><title>LogicQuestion&#45;&gt;LogicQuestionAnswer</title>
<path fill="none" stroke="#4dd95f" d="M344.823,-535.488C336.711,-427.068 324.7,-266.536 317.765,-173.837"/>
<ellipse fill="none" stroke="#4dd95f" cx="345.123" cy="-539.5" rx="4" ry="4"/>
<polygon fill="#4dd95f" stroke="#4dd95f" points="317.753,-173.676 321.494,-163.368 317.38,-168.69 317.007,-163.704 317.007,-163.704 317.007,-163.704 317.38,-168.69 312.519,-164.04 317.753,-173.676 317.753,-173.676"/>
</g>
<!-- ProfileQuestion&#45;&gt;ProfileQuestionAnswer -->
<g id="edge13" class="edge"><title>ProfileQuestion&#45;&gt;ProfileQuestionAnswer</title>
<path fill="none" stroke="#6e7c58" d="M1026.89,-535.488C1039.95,-427.068 1059.28,-266.536 1070.45,-173.837"/>
<ellipse fill="none" stroke="#6e7c58" cx="1026.4" cy="-539.517" rx="4.00001" ry="4.00001"/>
<polygon fill="#6e7c58" stroke="#6e7c58" points="1070.47,-173.632 1076.13,-164.242 1071.07,-168.668 1071.67,-163.704 1071.67,-163.704 1071.67,-163.704 1071.07,-168.668 1067.2,-163.166 1070.47,-173.632 1070.47,-173.632"/>
</g>
<!-- User -->
<g id="node11" class="node"><title>User</title>
<path fill="none" stroke="black" d="M547,-1087.5C547,-1087.5 727.556,-1087.5 727.556,-1087.5 733.556,-1087.5 739.556,-1093.5 739.556,-1099.5 739.556,-1099.5 739.556,-1287.5 739.556,-1287.5 739.556,-1293.5 733.556,-1299.5 727.556,-1299.5 727.556,-1299.5 547,-1299.5 547,-1299.5 541,-1299.5 535,-1293.5 535,-1287.5 535,-1287.5 535,-1099.5 535,-1099.5 535,-1093.5 541,-1087.5 547,-1087.5"/>
<text text-anchor="middle" x="637.278" y="-1284.3" font-family="Times,serif" font-size="14.00">User</text>
<polyline fill="none" stroke="black" points="535,-1277.5 739.556,-1277.5 "/>
<text text-anchor="start" x="543" y="-1262.3" font-family="Times,serif" font-size="14.00">id :integer</text>
<text text-anchor="start" x="543" y="-1248.3" font-family="Times,serif" font-size="14.00">email :string</text>
<text text-anchor="start" x="543" y="-1234.3" font-family="Times,serif" font-size="14.00">encrypted_password :string</text>
<text text-anchor="start" x="543" y="-1220.3" font-family="Times,serif" font-size="14.00">reset_password_token :string</text>
<text text-anchor="start" x="543" y="-1206.3" font-family="Times,serif" font-size="14.00">reset_password_sent_at :datetime</text>
<text text-anchor="start" x="543" y="-1192.3" font-family="Times,serif" font-size="14.00">remember_created_at :datetime</text>
<text text-anchor="start" x="543" y="-1178.3" font-family="Times,serif" font-size="14.00">sign_in_count :integer</text>
<text text-anchor="start" x="543" y="-1164.3" font-family="Times,serif" font-size="14.00">current_sign_in_at :datetime</text>
<text text-anchor="start" x="543" y="-1150.3" font-family="Times,serif" font-size="14.00">last_sign_in_at :datetime</text>
<text text-anchor="start" x="543" y="-1136.3" font-family="Times,serif" font-size="14.00">current_sign_in_ip :string</text>
<text text-anchor="start" x="543" y="-1122.3" font-family="Times,serif" font-size="14.00">last_sign_in_ip :string</text>
<text text-anchor="start" x="543" y="-1108.3" font-family="Times,serif" font-size="14.00">created_at :datetime</text>
<text text-anchor="start" x="543" y="-1094.3" font-family="Times,serif" font-size="14.00">updated_at :datetime</text>
</g>
<!-- User&#45;&gt;AdmissionApplication -->
<g id="edge14" class="edge"><title>User&#45;&gt;AdmissionApplication</title>
<path fill="none" stroke="#bca163" d="M641.252,-1079.14C641.495,-1072.19 641.746,-1065.03 642.004,-1057.69"/>
<ellipse fill="none" stroke="#bca163" cx="641.104" cy="-1083.36" rx="4" ry="4"/>
<ellipse fill="#bca163" stroke="#bca163" cx="642.145" cy="-1053.65" rx="4" ry="4"/>
</g>
</g>
</svg>
